<?xml version="1.0" standalone="no"?>
<!DOCTYPE svg PUBLIC "-//W3C//DTD SVG 20010904//EN"
 "http://www.w3.org/TR/2001/REC-SVG-20010904/DTD/svg10.dtd">
<svg version="1.0" xmlns="http://www.w3.org/2000/svg"
 width="4000.000000pt" height="4000.000000pt" viewBox="0 0 4000.000000 4000.000000"
 preserveAspectRatio="xMidYMid meet">

<g transform="translate(0.000000,4000.000000) scale(0.100000,-0.100000)"
fill="#000000" stroke="none">
<path d="M17190 32465 c-126 -27 -85 -7 -1440 -673 -162 -79 -389 -191 -505
-247 -115 -56 -349 -171 -520 -255 -170 -84 -409 -201 -530 -260 -121 -59
-346 -169 -500 -245 -154 -76 -394 -193 -532 -261 -626 -307 -775 -380 -1028
-504 -148 -73 -373 -183 -500 -245 -126 -62 -365 -179 -530 -260 -165 -81
-408 -200 -540 -265 -555 -272 -747 -366 -1050 -515 -176 -86 -529 -260 -785
-385 -256 -125 -613 -301 -795 -390 -181 -89 -393 -193 -470 -230 -314 -151
-626 -310 -672 -341 -78 -53 -204 -188 -254 -275 -114 -194 -154 -419 -113
-634 22 -119 55 -200 133 -325 38 -60 167 -267 286 -460 120 -192 314 -503
430 -690 116 -187 463 -745 772 -1240 837 -1345 889 -1429 902 -1452 9 -18 1
-55 -43 -210 -260 -898 -401 -1757 -447 -2723 -11 -230 -6 -1029 7 -1185 2
-33 11 -148 20 -255 77 -1017 302 -2054 654 -3020 907 -2489 2680 -4615 4985
-5977 2191 -1295 4772 -1815 7346 -1482 l235 31 490 -232 c269 -128 543 -259
609 -290 528 -251 539 -255 724 -248 92 4 133 11 196 32 147 50 287 156 368
279 31 47 151 296 530 1097 l125 265 64 32 c35 18 160 79 278 137 608 298
1329 750 1881 1178 1406 1093 2514 2438 3293 3998 621 1244 1010 2597 1146
3985 45 464 64 1275 41 1721 -40 745 -134 1408 -302 2122 -46 196 -51 226 -39
245 99 159 147 344 138 530 -5 88 -25 178 -147 660 -77 307 -151 581 -163 610
-84 198 -241 364 -438 462 -65 33 -70 39 -70 86 0 44 -257 1069 -307 1224
-148 462 -386 858 -722 1208 -459 476 -1099 814 -1726 912 -60 9 -120 22 -132
28 -11 7 -104 82 -205 167 -2114 1779 -4786 2724 -7563 2677 -313 -6 -668 -24
-888 -45 -66 -7 -80 -6 -87 7 -4 9 -87 225 -183 481 -97 256 -230 609 -297
785 -67 176 -127 333 -133 350 -33 92 -140 232 -242 318 -79 67 -253 156 -355
182 -89 23 -314 29 -400 10z m273 -313 c12 -5 -28 -29 -145 -87 -90 -43 -345
-169 -568 -278 -223 -110 -490 -241 -595 -292 -104 -51 -320 -157 -480 -235
-159 -78 -384 -189 -500 -245 -115 -57 -349 -171 -520 -255 -170 -84 -409
-201 -530 -260 -121 -59 -355 -174 -520 -255 -495 -243 -847 -416 -1555 -763
-135 -66 -380 -186 -545 -267 -283 -139 -475 -233 -1020 -500 -126 -62 -356
-174 -510 -250 -713 -350 -843 -414 -1040 -510 -115 -56 -367 -180 -560 -275
-192 -95 -417 -205 -500 -245 -343 -166 -562 -278 -607 -311 -128 -94 -235
-251 -279 -410 -41 -143 -29 -330 30 -467 10 -24 83 -146 161 -273 79 -126
183 -294 233 -374 50 -80 232 -372 405 -650 173 -278 372 -597 442 -710 70
-113 269 -432 442 -710 173 -278 419 -674 547 -880 128 -206 243 -391 256
-410 130 -200 435 -703 430 -709 -10 -9 -122 67 -175 119 -31 30 -74 84 -95
120 -46 78 -197 320 -800 1290 -775 1245 -1211 1946 -1582 2540 -536 860 -511
818 -533 905 -11 43 -20 106 -20 139 1 194 106 390 265 490 28 18 682 342
1455 721 773 379 1902 932 2510 1230 608 298 2248 1103 3645 1788 1397 685
2563 1252 2590 1261 28 8 59 17 70 19 33 7 179 6 198 -1z m192 -1027 c24 -31
65 -132 295 -740 161 -426 280 -739 655 -1725 218 -575 414 -1090 435 -1145
21 -55 93 -244 160 -420 114 -296 123 -325 124 -390 0 -55 -5 -82 -26 -126
-43 -93 -78 -119 -321 -238 -122 -60 -366 -180 -542 -266 -176 -87 -414 -204
-530 -260 -335 -164 -1547 -758 -2055 -1008 -424 -208 -794 -390 -1065 -522
-126 -62 -347 -170 -490 -240 -143 -70 -363 -178 -490 -240 -126 -62 -383
-188 -570 -280 -187 -92 -416 -205 -510 -250 -93 -45 -336 -165 -540 -265
-203 -100 -433 -213 -510 -250 -77 -37 -329 -161 -560 -275 -231 -114 -438
-213 -460 -221 -37 -14 -131 -21 -141 -12 -2 3 1183 587 2633 1298 1451 712
2796 1371 2988 1466 193 94 908 445 1590 779 682 334 1258 620 1281 636 121
82 192 234 181 384 -4 61 -35 149 -225 650 -121 319 -488 1286 -816 2148 -328
863 -596 1573 -596 1578 0 18 79 -31 105 -66z m-217 -415 c72 -190 210 -554
307 -810 98 -256 208 -546 245 -645 38 -99 146 -382 240 -630 94 -247 246
-646 336 -885 236 -622 303 -799 324 -850 40 -101 34 -163 -22 -217 -18 -17
-121 -73 -228 -126 -107 -52 -357 -175 -555 -272 -366 -180 -654 -322 -1050
-515 -121 -59 -312 -152 -425 -208 -113 -55 -353 -173 -535 -262 -181 -89
-420 -206 -530 -260 -110 -54 -339 -166 -510 -250 -712 -350 -927 -455 -1050
-515 -71 -35 -292 -143 -490 -240 -434 -214 -869 -428 -1180 -580 -126 -62
-351 -172 -500 -245 -148 -73 -342 -167 -430 -210 -88 -43 -344 -168 -570
-280 -225 -111 -414 -202 -419 -203 -5 -1 -14 8 -21 19 -6 12 -22 39 -37 60
-14 22 -148 237 -298 479 -150 242 -297 478 -326 525 -29 47 -72 117 -96 155
-38 64 -95 154 -153 245 -12 19 -58 94 -102 165 -44 72 -162 263 -263 425
-101 162 -195 314 -209 338 -14 23 -69 108 -122 190 -52 81 -121 190 -153 242
-32 52 -77 125 -99 161 -23 36 -97 155 -165 265 -68 109 -179 289 -248 399
-109 176 -124 205 -124 243 0 80 16 94 223 197 104 52 197 97 208 100 22 7
840 406 879 429 44 26 857 426 865 426 6 0 269 128 769 374 241 119 440 216
442 216 2 0 325 159 716 354 870 432 1515 748 1698 834 167 78 891 434 930
457 28 17 558 275 720 350 58 27 243 118 413 202 169 84 309 153 311 153 2 0
179 86 393 191 663 327 748 368 754 361 4 -4 66 -162 137 -352z m1909 -676
c-3 -3 -12 -4 -19 -1 -8 3 -5 6 6 6 11 1 17 -2 13 -5z m2540 -150 c-3 -3 -12
-4 -19 -1 -8 3 -5 6 6 6 11 1 17 -2 13 -5z m-150 -20 c-3 -3 -12 -4 -19 -1 -8
3 -5 6 6 6 11 1 17 -2 13 -5z m478 -44 c3 -6 -1 -7 -9 -4 -18 7 -21 14 -7 14
6 0 13 -4 16 -10z m-3187 -45 c-3 -3 -9 2 -12 12 -6 14 -5 15 5 6 7 -7 10 -15
7 -18z m3849 -111 c-3 -3 -12 -4 -19 -1 -8 3 -5 6 6 6 11 1 17 -2 13 -5z
m-3789 -49 c-3 -3 -9 2 -12 12 -6 14 -5 15 5 6 7 -7 10 -15 7 -18z m3937 5 c3
-5 1 -10 -4 -10 -6 0 -11 5 -11 10 0 6 2 10 4 10 3 0 8 -4 11 -10z m630 -200
c3 -6 -1 -7 -9 -4 -18 7 -21 14 -7 14 6 0 13 -4 16 -10z m-1020 -204 c50 -15
116 -36 149 -47 32 -10 62 -16 66 -14 5 3 10 2 12 -3 4 -9 99 -46 263 -102
179 -60 181 -61 201 -54 14 4 15 3 6 -4 -10 -7 13 -20 85 -47 54 -21 129 -51
167 -67 39 -16 76 -26 83 -23 8 2 12 1 10 -3 -3 -4 72 -40 167 -81 94 -41 198
-87 231 -103 33 -16 65 -26 73 -23 7 2 10 0 7 -5 -3 -6 5 -14 20 -20 14 -5 98
-46 186 -90 88 -44 166 -77 172 -73 7 3 9 2 4 -2 -4 -5 48 -38 115 -75 68 -36
184 -101 258 -143 208 -119 209 -120 194 -95 -4 7 -3 8 5 4 6 -4 9 -11 7 -14
-7 -12 213 -144 226 -136 6 4 8 3 5 -3 -6 -10 11 -22 166 -120 73 -46 82 -50
71 -31 -4 7 -3 8 5 4 6 -4 9 -11 6 -15 -2 -5 73 -61 168 -126 94 -65 184 -128
198 -139 15 -12 70 -52 123 -91 53 -38 96 -72 96 -75 0 -3 -55 -25 -122 -49
-267 -97 -605 -288 -848 -480 -125 -100 -399 -373 -490 -489 -387 -497 -601
-1017 -671 -1637 -16 -140 -16 -487 -1 -630 7 -60 22 -162 33 -225 30 -171
293 -1208 323 -1276 l27 -59 -46 -80 c-93 -164 -120 -265 -119 -455 l0 -145
143 -560 c120 -470 149 -574 185 -650 111 -230 285 -385 524 -465 52 -17 123
-49 158 -71 36 -22 70 -36 76 -33 6 4 8 3 5 -3 -8 -13 117 -68 132 -59 6 4 11
3 11 -2 0 -12 96 -35 165 -39 33 -1 93 -12 134 -23 41 -11 84 -20 96 -20 12 0
41 -18 66 -40 24 -22 76 -56 115 -75 77 -38 89 -42 78 -22 -4 6 2 4 14 -7 15
-13 38 -19 81 -20 34 0 61 -4 61 -7 0 -3 -30 -16 -67 -28 -104 -36 -318 -142
-418 -208 -132 -88 -227 -167 -351 -295 -278 -287 -451 -628 -526 -1038 -17
-93 -21 -156 -21 -325 -1 -231 10 -323 64 -524 130 -491 454 -918 898 -1185
52 -31 97 -59 100 -63 3 -3 -14 -3 -39 1 -288 39 -648 49 -805 21 -276 -48
-453 -161 -614 -391 -42 -60 -44 -61 -70 -48 -35 19 -60 17 -96 -5 -24 -14
-69 -89 -198 -324 l-168 -305 -143 68 c-200 95 -249 111 -382 117 -137 7 -234
-12 -349 -67 -158 -76 -263 -186 -350 -365 -78 -163 -272 -568 -315 -660 -21
-44 -144 -305 -275 -580 -131 -275 -259 -545 -285 -600 -26 -55 -98 -206 -160
-335 -62 -129 -123 -257 -135 -285 -13 -27 -50 -106 -83 -175 -61 -129 -181
-381 -348 -732 -53 -112 -140 -295 -194 -408 -54 -113 -160 -335 -235 -495
-216 -456 -227 -477 -340 -715 -442 -926 -425 -885 -425 -1064 0 -128 19 -208
75 -322 71 -142 187 -257 336 -329 l56 -28 -1 -76 c-1 -73 19 -197 34 -214 9
-10 321 -9 459 2 88 6 97 5 154 -20 l61 -27 -34 -6 c-53 -9 -241 -24 -485 -41
-705 -46 -1485 -18 -2200 81 -2215 306 -4241 1244 -5935 2749 -183 162 -599
574 -779 770 -1481 1616 -2443 3582 -2800 5720 -63 377 -101 712 -133 1150
-20 275 -17 1179 5 1465 41 534 99 964 198 1455 37 188 149 655 184 774 l17
54 40 -64 c23 -35 74 -120 116 -189 41 -69 97 -153 124 -187 68 -85 180 -173
294 -230 82 -40 94 -50 90 -68 -29 -106 -38 -188 -33 -300 9 -203 -1 -177 432
-1060 325 -662 395 -805 617 -1260 130 -264 419 -853 643 -1310 224 -456 451
-920 505 -1030 97 -198 204 -417 543 -1107 96 -196 190 -378 208 -405 47 -69
154 -178 224 -228 79 -56 161 -97 265 -130 112 -36 322 -46 443 -21 111 22
171 49 632 276 226 111 583 287 795 390 212 103 547 268 745 365 639 315 947
466 1110 545 88 42 419 204 735 360 672 330 1037 509 1355 665 127 62 361 177
520 255 160 78 389 191 510 250 121 59 360 176 530 260 171 84 405 199 520
255 116 56 350 171 520 255 171 84 396 194 500 245 773 376 960 473 1030 532
151 127 263 304 307 485 l21 87 46 22 c80 36 184 106 227 151 51 52 145 189
138 200 -3 4 0 8 6 8 7 0 9 7 6 16 -3 8 -2 13 3 9 12 -7 50 108 58 172 12 102
14 209 3 193 -8 -12 -9 -9 -4 12 3 15 1 51 -6 80 -17 71 -90 229 -103 221 -6
-3 -7 -1 -3 5 9 15 -175 393 -187 385 -6 -3 -7 -1 -3 5 9 15 -91 225 -104 217
-5 -3 -7 0 -4 9 3 8 -6 36 -20 63 -14 26 -26 52 -26 56 0 5 -46 100 -101 210
-56 111 -116 230 -133 265 -18 35 -35 60 -40 55 -5 -4 -6 -3 -2 4 9 16 -104
254 -117 246 -6 -3 -7 -1 -4 4 8 12 -16 76 -25 68 -2 -3 -5 1 -5 7 -1 30 -74
169 -85 162 -7 -5 -8 -3 -3 6 10 16 -55 151 -68 143 -6 -3 -7 -2 -4 4 3 5 -14
51 -38 102 -25 51 -45 96 -45 100 0 5 -7 14 -15 21 -9 7 -13 15 -11 17 2 3
-10 35 -28 71 -19 37 -57 115 -86 174 -30 59 -58 104 -63 101 -6 -3 -7 -1 -3
6 10 15 -3 53 -15 45 -5 -3 -9 -2 -8 3 5 21 -24 87 -141 321 -70 138 -130 249
-135 245 -4 -5 -5 -3 -2 4 4 6 -4 33 -17 60 -14 27 -30 61 -35 76 -7 17 -15
25 -23 21 -7 -4 -8 -3 -4 4 4 7 -2 29 -12 50 -11 20 -34 66 -50 102 -27 57
-99 206 -395 812 -39 81 -75 144 -81 141 -5 -3 -6 -1 -3 5 4 5 -38 104 -94
219 -56 114 -141 293 -190 396 -49 103 -99 205 -112 225 -12 20 -36 66 -52
102 -16 36 -34 71 -39 79 -6 7 -11 20 -12 27 -1 8 -21 44 -43 80 l-41 65 59
242 c207 851 261 1074 265 1107 2 14 8 38 15 53 6 16 11 33 11 38 0 5 12 58
26 117 15 59 28 117 29 129 2 12 5 25 8 30 11 19 127 515 121 524 -3 5 -1 9 4
9 8 0 30 81 36 133 1 12 5 27 8 32 3 6 10 33 17 60 7 28 17 68 22 90 17 65 77
178 124 232 24 28 41 54 37 58 -4 3 0 5 8 3 8 -1 14 3 15 11 0 8 8 15 17 17 9
1 32 14 50 28 45 34 140 76 208 92 94 22 269 13 375 -20z m1698 -59 c4 3 7 4
7 1 0 -3 -8 -12 -17 -19 -10 -7 -15 -9 -11 -5 4 5 2 16 -5 25 -10 14 -10 14 4
4 9 -7 19 -10 22 -6z m-5060 -12 c-3 -9 -8 -14 -10 -11 -3 3 -2 9 2 15 9 16
15 13 8 -4z m5352 -123 c-3 -3 -11 0 -18 7 -9 10 -8 11 6 5 10 -3 15 -9 12
-12z m-1100 -92 c3 -6 -1 -7 -9 -4 -18 7 -21 14 -7 14 6 0 13 -4 16 -10z
m1370 -29 c3 -5 2 -12 -3 -15 -5 -3 -9 1 -9 9 0 17 3 19 12 6z m279 -153 c-5
-8 -1 -9 12 -4 14 5 16 4 7 -5 -13 -13 -37 -3 -28 12 4 5 8 9 11 9 3 0 2 -5
-2 -12z m-927 -133 c0 -8 -4 -12 -9 -9 -5 3 -6 10 -3 15 9 13 12 11 12 -6z
m1308 -73 c-3 -3 -11 0 -18 7 -9 10 -8 11 6 5 10 -3 15 -9 12 -12z m80 -61
c-6 -5 -25 10 -25 20 0 5 6 4 14 -3 8 -7 12 -15 11 -17z m-6098 -53 c-3 -8 -6
-5 -6 6 -1 11 2 17 5 13 3 -3 4 -12 1 -19z m6283 -43 c7 -9 8 -15 2 -15 -5 0
-12 7 -16 15 -3 8 -4 15 -2 15 2 0 9 -7 16 -15z m120 -90 c-10 -12 -10 -15 0
-15 8 0 11 -3 7 -6 -3 -3 -11 -3 -17 1 -8 5 -8 11 1 21 6 8 14 14 16 14 3 0 0
-7 -7 -15z m41 -12 c13 -16 12 -17 -3 -4 -17 13 -22 21 -14 21 2 0 10 -8 17
-17z m54 -33 c3 -6 -1 -7 -9 -4 -18 7 -21 14 -7 14 6 0 13 -4 16 -10z m-6417
-35 c-3 -3 -9 2 -12 12 -6 14 -5 15 5 6 7 -7 10 -15 7 -18z m6467 -3 c-3 -3
-11 0 -18 7 -9 10 -8 11 6 5 10 -3 15 -9 12 -12z m35 -15 c0 -2 -8 -11 -18
-20 -15 -14 -19 -15 -19 -2 0 8 4 12 8 9 4 -2 10 0 14 6 6 10 15 14 15 7z
m-6442 -92 c-3 -3 -9 2 -12 12 -6 14 -5 15 5 6 7 -7 10 -15 7 -18z m6643 -52
c13 -16 12 -17 -3 -4 -17 13 -22 21 -14 21 2 0 10 -8 17 -17z m114 -83 c-3 -5
0 -10 7 -10 8 0 6 -5 -5 -11 -9 -6 -15 -14 -12 -20 10 -15 -1 -10 -15 7 -11
12 -11 15 0 12 8 -2 15 3 16 10 3 19 4 22 10 22 3 0 2 -4 -1 -10z m120 -80 c3
-6 -1 -7 -9 -4 -18 7 -21 14 -7 14 6 0 13 -4 16 -10z m104 -74 c9 -11 9 -16
-1 -22 -7 -4 -10 -4 -6 1 4 4 3 14 -3 22 -6 7 -9 13 -6 13 2 0 10 -6 16 -14z
m36 -44 c-3 -3 -11 0 -18 7 -9 10 -8 11 6 5 10 -3 15 -9 12 -12z m-6875 -17
c0 -2 -9 -3 -19 -2 -11 0 -18 5 -15 9 4 6 34 0 34 -7z m7053 -114 c-2 -3 -16
8 -31 24 l-27 28 31 -24 c17 -13 30 -26 27 -28z m62 -41 c10 -11 16 -20 13
-20 -3 0 -13 9 -23 20 -10 11 -16 20 -13 20 3 0 13 -9 23 -20z m-430 -110 c-3
-5 -12 -10 -18 -10 -7 0 -6 4 3 10 19 12 23 12 15 0z m-6561 -116 c3 -8 2 -12
-4 -9 -6 3 -10 10 -10 16 0 14 7 11 14 -7z m7526 -113 c48 -6 37 -8 -80 -14
-256 -15 -442 -43 -665 -101 -789 -205 -1478 -746 -1869 -1466 -248 -456 -368
-925 -369 -1440 0 -335 21 -471 158 -1022 52 -208 95 -383 95 -390 0 -19 -99
-72 -105 -56 -11 33 -266 1062 -280 1131 -36 178 -47 343 -42 592 6 264 18
370 72 590 196 814 726 1493 1459 1871 358 184 700 280 1136 318 61 5 421 -4
490 -13z m-7436 -127 c3 -8 2 -12 -4 -9 -6 3 -10 10 -10 16 0 14 7 11 14 -7z
m84 -239 c-3 -3 -9 2 -12 12 -6 14 -5 15 5 6 7 -7 10 -15 7 -18z m6237 -585
c-3 -5 -12 -10 -18 -10 -7 0 -6 4 3 10 19 12 23 12 15 0z m1107 -41 c23 -25
42 -38 49 -33 7 4 9 3 5 -4 -3 -6 0 -16 7 -24 7 -7 22 -26 35 -42 12 -16 82
-92 156 -170 135 -143 266 -292 411 -469 44 -54 81 -93 83 -87 2 5 8 7 14 4 6
-4 5 -10 -3 -15 -11 -6 -8 -14 12 -36 14 -15 52 -63 84 -106 43 -59 60 -75 67
-65 7 10 8 8 4 -5 -4 -12 15 -44 57 -100 34 -45 89 -119 121 -164 33 -46 61
-83 63 -83 2 0 1 5 -3 12 -4 7 -3 8 5 4 6 -4 8 -12 5 -18 -4 -5 3 -23 14 -38
40 -54 222 -329 228 -345 3 -8 11 -12 18 -8 6 3 8 3 4 -1 -4 -5 13 -39 38 -77
24 -38 44 -73 44 -78 0 -4 -55 -22 -122 -39 -159 -41 -234 -79 -313 -156 -102
-100 -157 -231 -158 -371 0 -70 17 -148 141 -640 78 -308 219 -864 312 -1235
111 -440 181 -697 200 -738 37 -80 141 -189 218 -230 62 -33 151 -62 190 -62
14 0 43 -17 70 -41 44 -39 152 -99 179 -99 6 0 14 6 16 13 4 7 6 6 6 -4 1 -9
7 -19 14 -22 7 -3 21 -40 31 -83 22 -91 55 -134 104 -134 37 0 39 -4 56 -153
59 -495 -8 -984 -196 -1426 -116 -273 -488 -975 -506 -956 -3 3 -6 17 -7 32
-9 118 -59 328 -101 418 -7 17 -27 62 -43 100 -17 39 -35 69 -41 67 -6 -1 -9
2 -5 7 9 16 -44 113 -57 105 -7 -4 -8 -3 -4 5 10 15 -62 133 -76 125 -7 -4 -8
-2 -4 5 7 10 -57 107 -89 136 -6 6 -19 23 -29 38 -9 16 -22 25 -28 21 -7 -4
-8 -3 -4 4 4 7 2 12 -3 12 -6 0 -11 7 -11 16 0 8 -4 12 -10 9 -5 -3 -10 -2
-10 2 0 13 -62 78 -72 75 -4 -1 -7 4 -6 10 2 7 -3 12 -10 10 -8 -1 -11 2 -7 8
3 5 -5 14 -18 19 -14 6 -26 13 -28 18 -7 15 -114 101 -203 162 -62 42 -93 58
-101 51 -14 -12 -25 -3 -19 15 6 14 -23 28 -38 18 -6 -3 -8 -2 -5 4 8 13 -120
76 -136 67 -7 -4 -9 -4 -5 0 8 9 -97 67 -287 160 -273 134 -538 196 -847 197
-85 0 -179 -2 -209 -5 -46 -5 -50 -4 -24 5 17 5 42 12 56 15 15 3 66 16 115
30 49 13 100 26 114 29 117 20 246 76 293 126 10 10 23 19 29 19 6 0 9 2 6 5
-3 3 12 23 33 45 40 42 104 164 94 179 -3 5 -1 11 5 13 16 5 30 138 21 203 -5
33 -78 330 -161 660 -84 330 -158 628 -166 662 -12 58 -31 134 -136 533 -38
146 -57 222 -78 315 -5 22 -16 65 -25 95 -8 30 -24 93 -36 140 -44 180 -133
295 -286 372 -69 34 -85 39 -98 28 -8 -7 -18 -10 -22 -6 -3 3 -1 6 5 6 7 0 12
4 12 9 0 5 -19 11 -42 15 -30 5 -55 19 -89 51 -85 80 -227 135 -349 135 -32 0
-134 -19 -240 -45 -186 -45 -227 -53 -180 -33 24 10 24 10 5 18 -18 8 -18 9
-2 9 12 1 16 5 10 14 -4 6 -9 20 -10 30 -2 10 -19 80 -37 155 -19 75 -40 169
-46 207 -6 39 -14 77 -17 85 -3 8 -8 110 -10 225 -5 207 -1 250 41 505 2 8 13
47 24 86 12 40 19 80 16 90 -4 13 -3 15 3 7 6 -8 13 3 23 35 56 193 228 493
391 682 32 37 56 70 53 74 -2 3 -1 4 3 1 10 -7 73 56 67 67 -3 5 -1 7 4 6 5
-2 22 8 38 22 83 72 146 122 214 169 41 29 74 57 72 63 -1 5 2 7 7 4 5 -3 56
19 113 50 56 30 135 69 173 85 80 35 241 89 262 89 8 0 11 5 7 12 -4 7 -3 8 5
4 7 -5 42 -1 79 8 97 24 237 44 312 45 63 1 65 0 102 -40z m-1206 -4 c-11 -8
-25 -15 -30 -15 -6 1 0 7 14 15 32 19 40 18 16 0z m-6001 -55 c3 -6 -1 -7 -9
-4 -18 7 -21 14 -7 14 6 0 13 -4 16 -10z m255 -195 c13 -14 21 -25 18 -25 -2
0 -15 11 -28 25 -13 14 -21 25 -18 25 2 0 15 -11 28 -25z m7944 -3 c3 -5 -1
-9 -9 -9 -8 0 -12 4 -9 9 3 4 7 8 9 8 2 0 6 -4 9 -8z m51 -50 c-3 -3 -11 0
-18 7 -9 10 -8 11 6 5 10 -3 15 -9 12 -12z m-8498 -17 c118 -37 214 -104 289
-202 33 -42 189 -352 509 -1008 51 -104 157 -320 235 -480 78 -159 200 -407
270 -550 70 -143 519 -1059 998 -2036 529 -1079 877 -1799 886 -1836 20 -77
21 -211 1 -286 -33 -127 -114 -248 -215 -322 -42 -31 -810 -413 -1645 -820
-104 -51 -545 -266 -979 -479 l-789 -387 -50 21 c-64 28 -139 35 -206 21 -32
-7 -329 -146 -760 -358 -388 -190 -838 -410 -999 -489 -230 -113 -303 -153
-342 -190 -50 -47 -92 -120 -105 -184 -7 -34 -12 -37 -209 -133 -110 -53 -379
-185 -596 -291 -2415 -1184 -2568 -1259 -2639 -1277 -221 -57 -460 25 -597
203 -26 33 -103 176 -181 335 -74 153 -193 395 -263 538 -262 534 -391 798
-525 1070 -76 154 -188 384 -250 510 -195 399 -358 730 -505 1030 -143 290
-284 579 -495 1010 -62 127 -190 388 -285 580 -355 723 -390 798 -405 870 -41
194 17 387 160 530 76 77 87 83 878 467 l227 111 35 -41 c53 -61 132 -96 219
-97 64 0 81 5 171 46 55 26 1578 771 3385 1658 3143 1541 3287 1613 3332 1661
61 66 81 126 77 232 l-4 81 499 244 c274 134 522 250 550 258 87 23 232 19
323 -10z m563 0 c13 -14 21 -25 18 -25 -2 0 -15 11 -28 25 -13 14 -21 25 -18
25 2 0 15 -11 28 -25z m8098 -157 c-2 -7 2 -12 9 -13 6 0 14 -3 18 -7 9 -9
-17 -5 -33 5 -7 5 -10 13 -7 18 9 13 15 11 13 -3z m93 -85 c13 -16 12 -17 -3
-4 -17 13 -22 21 -14 21 2 0 10 -8 17 -17z m100 -156 c-6 -8 -7 -18 -3 -23 4
-4 -1 -2 -10 5 -19 14 -25 26 -9 16 5 -3 12 -1 16 5 3 5 9 10 12 10 3 0 0 -6
-6 -13z m-3440 -64 c-12 -20 -14 -14 -5 12 4 9 9 14 11 11 3 -2 0 -13 -6 -23z
m3499 -7 c0 -2 -8 -10 -17 -17 -16 -13 -17 -12 -4 4 13 16 21 21 21 13z m25
-56 c3 -5 1 -10 -4 -10 -6 0 -11 5 -11 10 0 6 2 10 4 10 3 0 8 -4 11 -10z
m-3575 -10 c0 -5 -5 -10 -11 -10 -5 0 -7 5 -4 10 3 6 8 10 11 10 2 0 4 -4 4
-10z m3604 -36 c3 -8 2 -12 -4 -9 -6 3 -10 10 -10 16 0 14 7 11 14 -7z m-8063
-81 c13 -16 12 -17 -3 -4 -17 13 -22 21 -14 21 2 0 10 -8 17 -17z m8073 1 c3
-8 2 -12 -4 -9 -6 3 -10 10 -10 16 0 14 7 11 14 -7z m-8056 -49 c-3 -3 -9 2
-12 12 -6 14 -5 15 5 6 7 -7 10 -15 7 -18z m8083 2 c-10 -9 -11 -8 -5 6 3 10
9 15 12 12 3 -3 0 -11 -7 -18z m23 -22 c-4 -8 -11 -15 -16 -15 -6 0 -5 6 2 15
7 8 14 15 16 15 2 0 1 -7 -2 -15z m-3783 -58 c-10 -9 -11 -8 -5 6 3 10 9 15
12 12 3 -3 0 -11 -7 -18z m3860 -144 c13 -16 12 -17 -3 -4 -17 13 -22 21 -14
21 2 0 10 -8 17 -17z m-8026 -72 c3 -5 0 -13 -6 -17 -7 -4 -9 -3 -5 4 3 5 0
13 -6 15 -9 4 -10 6 -1 6 6 1 14 -3 18 -8z m8102 -223 c-3 -8 -6 -5 -6 6 -1
11 2 17 5 13 3 -3 4 -12 1 -19z m-7963 -74 c3 -8 2 -12 -4 -9 -6 3 -10 10 -10
16 0 14 7 11 14 -7z m120 -204 c-6 -6 -10 -3 -10 10 0 13 4 16 10 10 7 -7 7
-13 0 -20z m37 -117 c13 -16 12 -17 -3 -4 -17 13 -22 21 -14 21 2 0 10 -8 17
-17z m8218 -174 c102 -22 168 -90 202 -207 23 -80 24 -96 5 -89 -7 3 -19 0
-25 -6 -8 -8 -66 -13 -174 -14 -91 -1 -155 2 -147 7 7 4 36 6 64 3 28 -3 62 0
76 6 20 8 12 9 -34 4 -46 -5 -57 -3 -51 7 5 9 2 11 -11 7 -11 -4 -31 -9 -46
-13 -16 -3 -26 -10 -23 -14 2 -4 -6 -5 -19 -3 -33 7 -68 -14 -61 -36 3 -12 -3
-21 -22 -29 l-28 -12 28 6 c17 3 26 1 23 -5 -3 -5 -56 -9 -117 -8 -66 0 -105
4 -96 9 20 11 105 13 137 4 22 -6 21 -5 -5 11 -16 9 -34 16 -38 15 -5 -2 -21
-4 -35 -6 -46 -6 -82 -18 -82 -27 0 -5 -7 -6 -15 -2 -19 7 -93 -13 -143 -39
-20 -10 -50 -18 -67 -18 -16 0 -37 -5 -45 -11 -12 -9 -11 -10 8 -6 12 3 22 1
22 -4 0 -5 -16 -9 -36 -7 -37 2 -56 -14 -46 -40 3 -10 0 -13 -9 -10 -8 3 -13
12 -11 19 2 9 -4 7 -17 -5 -26 -24 -27 -40 -2 -27 14 8 22 7 30 -3 9 -11 4
-13 -29 -10 l-40 3 0 -42 0 -42 -15 29 c-24 46 -45 140 -45 203 0 81 35 150
100 198 43 32 81 43 381 119 421 106 388 100 458 85z m712 -298 c87 -27 201
-103 267 -177 99 -110 117 -162 263 -744 150 -600 157 -645 120 -790 -27 -106
-87 -213 -164 -291 -65 -65 -144 -117 -156 -103 -5 5 -28 90 -53 189 -25 99
-145 574 -267 1056 -121 482 -221 880 -221 884 0 14 142 -3 211 -24z m-487
-16 c3 3 2 -1 -4 -7 -12 -15 -13 -31 -1 -24 14 9 22 -24 10 -42 -10 -16 -10
-16 -5 0 3 12 1 15 -10 11 -7 -3 -14 -10 -14 -16 0 -6 -2 -8 -4 -6 -3 3 -1 21
3 42 7 29 6 37 -5 37 -9 0 -12 -8 -8 -28 4 -19 1 -32 -10 -41 -14 -12 -16 -10
-16 8 0 11 5 21 10 21 6 0 10 5 10 11 0 5 -4 7 -10 4 -16 -10 -12 7 7 27 11
12 20 15 28 8 6 -5 15 -8 19 -5z m-787 -121 c2 -7 -9 -17 -24 -23 l-28 -11 28
5 c19 4 26 2 22 -5 -8 -14 -104 -9 -99 5 12 32 93 54 101 29z m823 -15 c0 -6
-4 -7 -10 -4 -5 3 -10 11 -10 16 0 6 5 7 10 4 6 -3 10 -11 10 -16z m-945 -19
c-3 -5 -10 -10 -16 -10 -5 0 -9 5 -9 10 0 6 7 10 16 10 8 0 12 -4 9 -10z m961
-68 c-4 -3 -6 1 -7 9 0 8 -4 6 -9 -6 -6 -15 -8 -8 -8 25 l1 45 14 -34 c8 -18
12 -36 9 -39z m-8153 13 c-3 -9 -8 -14 -10 -11 -3 3 -2 9 2 15 9 16 15 13 8
-4z m8165 -32 c-2 -12 14 -84 28 -125 12 -33 11 -38 -3 -38 -9 0 -13 6 -9 15
3 8 0 28 -6 43 -6 15 -10 36 -9 47 3 20 3 20 -12 0 -9 -11 -14 -22 -12 -25 2
-3 -3 -11 -11 -18 -12 -11 -14 -4 -13 45 1 52 2 54 9 23 l7 -35 2 32 c1 26 7
35 29 42 1 1 1 -2 0 -6z m-1108 -95 c0 -9 4 -8 10 2 8 13 10 13 10 -2 0 -23
-20 -34 -31 -17 -12 19 -11 29 1 29 6 0 10 -6 10 -12z m-10 -47 c0 -10 4 -11
13 -3 9 8 12 -10 14 -86 1 -96 -7 -142 -20 -108 -4 10 -3 15 3 11 6 -4 10 10
10 35 0 23 -4 39 -9 36 -4 -3 -6 7 -4 22 3 25 3 26 -6 5 -6 -13 -13 -23 -16
-23 -4 0 -4 4 0 9 3 5 1 12 -5 16 -14 9 -13 25 3 25 7 0 18 10 26 21 11 19 11
21 -3 16 -11 -5 -16 -1 -16 13 0 10 -4 22 -10 25 -5 3 -10 14 -10 23 0 13 2
13 15 -4 8 -10 15 -25 15 -33z m1120 27 c0 -13 -4 -27 -8 -33 -8 -11 -44 -17
-38 -6 1 3 6 15 11 26 l7 20 9 -20 c8 -16 8 -15 4 8 -3 15 -1 27 5 27 5 0 10
-10 10 -22z m-1140 -56 c0 -29 -9 -25 -15 7 -2 11 -7 27 -11 34 -5 8 -2 8 9
-2 9 -7 17 -25 17 -39z m-3436 -28 c3 -8 2 -12 -4 -9 -6 3 -10 10 -10 16 0 14
7 11 14 -7z m4631 -42 c3 -17 9 -42 14 -55 6 -14 7 -28 4 -31 -3 -3 -1 -11 5
-18 14 -17 17 -49 7 -71 -5 -11 -3 -23 5 -30 10 -10 12 -8 7 6 -4 11 -3 16 4
12 5 -4 7 -15 4 -26 -4 -10 -2 -19 3 -19 8 0 23 -56 24 -87 0 -5 4 -15 9 -25
6 -11 4 -18 -7 -22 -12 -4 -14 -14 -9 -36 4 -17 2 -30 -3 -30 -12 0 -13 50 0
73 5 9 6 22 2 29 -4 6 -8 27 -10 46 -2 19 -12 43 -24 54 -11 10 -20 26 -20 34
0 22 -27 48 -33 31 -2 -6 -4 8 -3 33 1 27 6 45 13 45 6 0 15 3 19 7 3 4 -3 6
-15 3 -17 -3 -21 1 -21 23 1 26 1 26 15 8 17 -23 20 -14 4 16 -13 24 -22 101
-9 77 5 -9 12 -30 15 -47z m-3525 -32 c6 -11 8 -20 6 -20 -3 0 -10 9 -16 20
-6 11 -8 20 -6 20 3 0 10 -9 16 -20z m2358 -35 c-3 -3 -9 2 -12 12 -6 14 -5
15 5 6 7 -7 10 -15 7 -18z m-2716 -41 c56 -19 123 -74 147 -123 17 -34 41
-121 47 -168 1 -11 5 -32 9 -45 5 -18 4 -20 -4 -8 -15 22 -8 -50 8 -76 10 -17
11 -15 6 11 -5 26 -4 27 4 7 13 -27 4 -53 -15 -45 -8 3 -14 0 -14 -6 0 -6 6
-10 13 -8 8 1 11 -10 10 -33 -2 -32 -1 -33 8 -11 5 14 8 30 5 38 -3 7 -2 15 3
17 9 6 11 -19 4 -56 -5 -31 -33 -39 -34 -10 0 14 -2 14 -9 -3 -5 -12 -7 27 -5
97 3 124 -4 145 -41 132 -14 -4 -15 -3 -6 4 11 7 11 10 -2 15 -9 4 -23 4 -32
0 -9 -3 -19 -1 -23 6 -5 7 -19 9 -39 5 -40 -8 -42 -22 -3 -16 16 2 31 0 34 -5
3 -4 -31 -8 -74 -8 -44 0 -75 1 -69 3 19 7 10 20 -10 15 -11 -3 -20 -9 -20
-13 0 -5 -12 -7 -27 -5 -16 2 -36 1 -45 -1 -21 -6 -24 -30 -5 -37 7 -2 8 -8 3
-13 -5 -5 -11 -4 -13 4 -6 15 -26 15 -77 1 -28 -8 -35 -13 -25 -19 7 -5 18 -5
24 -1 5 5 19 5 30 1 l20 -7 -20 -6 c-29 -9 -155 -6 -155 4 0 5 5 9 12 9 6 0 9
3 5 6 -3 3 -15 3 -28 -1 -17 -6 -19 -9 -8 -16 9 -5 -1 -7 -28 -5 -40 3 -41 3
-32 -21 22 -58 17 -61 -83 -59 -99 3 -140 12 -116 27 9 6 9 9 1 9 -18 0 -27
-21 -12 -31 8 -4 -7 -6 -36 -4 -56 5 -75 -6 -69 -41 4 -20 0 -24 -18 -24 -18
0 -20 -2 -8 -10 10 -6 4 -8 -20 -7 -31 2 -35 0 -32 -22 3 -16 -1 -22 -10 -19
-7 3 -18 -1 -25 -8 -18 -17 -16 -29 2 -14 8 6 18 9 23 6 12 -7 12 -98 0 -113
-6 -7 -6 -13 -1 -13 5 0 9 -20 9 -45 1 -46 -3 -53 -11 -19 -2 11 -8 34 -14 52
-5 17 -7 32 -4 32 3 0 1 6 -5 13 -19 23 -23 95 -6 112 9 8 21 12 27 8 6 -4 8
0 4 9 -3 9 -1 20 5 26 6 6 17 8 26 5 10 -4 13 -2 8 5 -5 8 2 12 20 12 29 0 28
10 -2 14 -10 2 -37 -15 -60 -36 -24 -22 -46 -39 -51 -39 -10 1 -42 125 -43
162 0 14 7 49 16 78 19 65 91 142 150 161 91 30 692 179 725 179 19 1 56 -6
81 -15z m2738 -30 c0 -8 -4 -12 -10 -9 -5 3 -10 10 -10 16 0 5 5 9 10 9 6 0
10 -7 10 -16z m39 -52 c14 -34 17 -79 6 -116 -6 -21 -5 -28 5 -24 7 2 14 19
15 36 4 51 13 49 13 -2 -1 -25 -5 -46 -10 -46 -4 0 -3 -9 4 -20 11 -17 10 -22
-2 -30 -8 -5 -10 -10 -4 -10 7 0 12 -6 11 -12 0 -7 1 -27 1 -45 2 -28 5 -31
27 -27 25 4 26 4 11 -24 -8 -16 -12 -32 -9 -36 4 -3 2 -6 -4 -6 -6 0 -14 7
-17 16 -3 8 -2 12 4 9 6 -3 10 1 10 10 0 9 -4 14 -9 10 -5 -3 -12 3 -15 12
-11 38 -19 79 -19 105 0 16 -4 25 -10 21 -6 -3 -7 -1 -3 6 4 6 2 18 -4 26 -9
11 -9 23 -2 44 13 36 -2 101 -22 101 -21 0 -26 26 -6 27 11 1 23 -9 29 -25z
m31 11 c0 -10 3 -28 6 -40 4 -14 2 -23 -5 -23 -6 0 -11 9 -11 21 0 11 -5 29
-10 40 -8 15 -7 19 5 19 8 0 15 -8 15 -17z m-2367 -23 c3 -11 1 -18 -4 -14 -5
3 -9 12 -9 20 0 20 7 17 13 -6z m3447 -2 c0 -19 -2 -20 -10 -8 -8 13 -10 13
-10 -2 0 -9 8 -19 18 -21 15 -4 15 -5 0 -6 -22 -1 -31 14 -23 39 9 27 25 25
25 -2z m-1126 -14 c7 -19 8 -59 1 -52 -3 3 -7 15 -10 27 -2 11 -7 26 -10 31
-3 6 -2 10 3 10 6 0 13 -7 16 -16z m1217 -215 c-9 -25 -8 -38 4 -62 8 -17 15
-40 14 -51 0 -17 -2 -16 -11 7 -10 28 -29 32 -34 9 -1 -7 0 -8 3 -2 6 13 23 3
23 -13 0 -7 -10 -13 -21 -14 -19 -2 -21 2 -15 30 4 18 10 33 15 35 5 2 7 11 4
21 -3 11 1 29 8 42 9 17 9 24 0 27 -6 2 -11 11 -11 20 0 15 1 15 16 0 14 -14
15 -22 5 -49z m22 -34 c3 -16 8 -38 12 -47 13 -32 -2 -19 -19 16 -9 19 -13 42
-10 51 8 20 11 17 17 -20z m-7959 -41 c3 -8 2 -12 -4 -9 -6 3 -10 10 -10 16 0
14 7 11 14 -7z m6851 -50 c1 -34 -4 -72 -12 -92 -8 -19 -12 -37 -9 -40 3 -2
10 6 15 19 7 18 9 5 8 -49 -1 -72 8 -94 37 -88 6 2 8 1 4 -1 -14 -8 -9 -23 7
-23 12 0 14 -7 9 -26 -5 -19 -4 -25 5 -20 6 4 11 2 11 -3 0 -6 -4 -11 -9 -11
-5 0 -9 -10 -9 -22 0 -13 -1 -29 -3 -37 -2 -7 2 -16 10 -18 9 -4 11 0 6 16 -3
11 -2 29 4 38 7 13 9 -15 8 -90 -2 -93 1 -111 16 -121 9 -7 17 -21 17 -31 0
-14 3 -15 15 -5 8 7 15 19 15 26 0 29 15 12 17 -19 1 -25 0 -28 -7 -12 -6 17
-9 13 -15 -20 -12 -60 -10 -87 11 -165 5 -17 3 -22 -4 -15 -6 6 -13 26 -16 46
-3 20 -10 48 -16 63 -10 26 -21 75 -24 106 0 8 -5 18 -10 21 -5 4 -9 26 -9 50
0 24 -4 47 -9 50 -11 7 -48 146 -40 153 2 3 0 11 -6 18 -5 7 -13 31 -17 53 -4
22 -14 61 -22 87 -11 34 -12 51 -4 66 6 11 8 28 4 38 -4 10 -2 15 3 11 5 -3 9
13 9 38 0 43 -14 54 -16 12 0 -21 -1 -21 -8 -2 -8 19 15 72 26 61 3 -3 6 -31
8 -62z m1137 -29 c1 -17 5 -34 9 -40 4 -5 9 -23 12 -40 3 -16 10 -44 15 -61 8
-26 7 -33 -9 -42 -11 -7 -19 -17 -19 -23 0 -5 4 -8 9 -4 15 9 22 -27 12 -60
l-9 -30 -1 28 c-1 15 -6 27 -12 27 -7 0 -9 -10 -5 -25 4 -14 2 -25 -3 -25 -10
0 -7 76 5 104 4 11 4 17 -2 14 -5 -4 -9 9 -9 27 -1 26 2 31 12 23 10 -8 13 -6
13 6 0 9 -7 16 -15 16 -8 0 -15 7 -15 16 0 9 5 12 12 8 7 -5 8 -3 4 5 -5 7
-10 27 -12 44 -3 18 -7 43 -10 57 -4 18 -2 22 5 15 6 -6 12 -24 13 -40z
m-1178 -16 c-3 -6 0 -15 7 -20 11 -6 11 -11 1 -21 -9 -9 -12 -9 -13 3 -1 7 -2
29 -4 48 -2 26 -1 31 7 18 5 -10 6 -22 2 -28z m-6690 -128 c-5 -6 -34 20 -34
30 0 5 8 1 18 -8 10 -10 17 -20 16 -22z m4121 -35 c4 -28 2 -36 -7 -31 -7 4
-4 -1 6 -9 18 -14 32 -91 15 -80 -4 2 -9 -2 -12 -9 -3 -9 3 -13 15 -13 12 1
23 -4 25 -10 2 -6 -3 -11 -11 -11 -8 0 -12 5 -9 10 4 6 1 7 -6 2 -7 -4 -11
-15 -8 -24 3 -11 -2 -17 -14 -18 -16 -2 -19 6 -19 45 0 28 4 42 8 34 6 -9 12
-6 20 12 8 19 7 27 -7 42 -11 13 -17 35 -16 66 0 54 13 50 20 -6z m3794 -28
c-1 -1 3 -14 10 -28 11 -24 11 -24 -3 -6 -15 18 -23 57 -10 44 3 -4 5 -8 3
-10z m-4996 -1066 c147 -587 268 -1071 267 -1075 0 -12 -105 1 -185 24 -172
50 -326 184 -395 343 -19 46 -101 354 -230 866 -72 283 -83 380 -56 495 25
104 78 206 147 279 56 61 152 135 174 136 6 0 131 -480 278 -1068z m3897 1048
c0 -5 -4 -10 -10 -10 -5 0 -10 5 -10 10 0 6 5 10 10 10 6 0 10 -4 10 -10z
m-2700 -36 c0 -8 -4 -12 -10 -9 -5 3 -10 10 -10 16 0 5 5 9 10 9 6 0 10 -7 10
-16z m-4047 -9 c-3 -9 -8 -14 -10 -11 -3 3 -2 9 2 15 9 16 15 13 8 -4z m7878
-34 c6 -15 6 -28 0 -34 -6 -6 -9 -4 -8 4 1 34 -4 49 -18 49 -8 0 -15 7 -15 16
0 14 2 14 16 3 9 -7 20 -24 25 -38z m-7863 -46 c-3 -3 -9 2 -12 12 -6 14 -5
15 5 6 7 -7 10 -15 7 -18z m7870 -33 c-10 -12 -10 -14 0 -8 6 4 12 4 13 -1 0
-4 2 -15 4 -23 2 -8 6 -25 9 -38 3 -12 8 -27 12 -34 4 -7 3 -8 -4 -4 -18 11
-14 -9 3 -24 9 -7 13 -15 10 -18 -3 -3 1 -12 8 -20 10 -13 9 -15 -5 -10 -18 7
-32 -24 -17 -39 6 -6 -2 -10 -21 -10 -17 0 -27 3 -22 6 19 14 52 80 42 86 -5
3 -10 -1 -10 -9 0 -9 -4 -16 -9 -16 -5 0 -7 26 -4 59 3 34 1 61 -4 64 -7 4 -9
-24 -7 -78 2 -47 0 -85 -4 -85 -8 0 -13 210 -6 222 3 5 10 6 15 2 6 -3 5 -12
-3 -22z m-4900 -11 c3 -9 0 -11 -8 -6 -10 6 -11 4 -5 -11 7 -19 16 -238 8
-231 -2 3 -6 14 -8 26 -10 46 -14 57 -24 85 -9 23 -9 31 1 37 6 4 16 5 21 2 5
-3 4 4 -2 16 -7 12 -8 21 -2 21 5 0 7 9 4 20 -3 11 -9 17 -14 14 -5 -3 -12 2
-15 10 -3 9 -10 14 -14 11 -4 -3 -10 1 -13 8 -3 8 7 12 31 12 21 0 37 -6 40
-14z m-33 -68 c3 -13 3 -23 -2 -23 -4 0 -13 16 -19 36 -9 29 -9 33 1 22 7 -7
16 -23 20 -35z m-2875 31 c0 -8 -19 -13 -24 -6 -3 5 1 9 9 9 8 0 15 -2 15 -3z
m4052 -39 c3 -13 1 -22 -3 -19 -15 9 -10 -8 7 -27 9 -10 16 -34 17 -53 1 -20
5 -36 11 -36 5 0 6 -3 3 -6 -3 -4 -2 -15 4 -26 6 -11 8 -22 5 -25 -3 -3 -11 6
-17 21 -7 15 -15 22 -19 16 -4 -6 -5 12 -4 39 2 28 -1 53 -6 56 -5 3 -7 -11
-4 -31 3 -22 1 -33 -6 -29 -5 3 -9 39 -8 80 2 72 11 90 20 40z m-3987 -74 c-9
-8 -36 -10 -30 -2 2 4 11 8 20 8 8 0 13 -3 10 -6z m7809 -48 c11 -35 14 -89 7
-101 -4 -8 -9 5 -10 30 -2 24 -3 49 -4 56 0 6 -7 12 -14 12 -8 0 -11 5 -8 10
10 15 23 12 29 -7z m-3837 -35 c-3 -8 -6 -5 -6 6 -1 11 2 17 5 13 3 -3 4 -12
1 -19z m2713 2 c0 -5 -4 -10 -10 -10 -5 0 -10 5 -10 10 0 6 5 10 10 10 6 0 10
-4 10 -10z m-2684 -40 c-1 -19 -6 -30 -16 -30 -21 0 -22 48 -1 53 9 3 16 5 17
6 1 0 1 -12 0 -29z m2682 -37 l0 -48 -13 45 c-12 45 -11 65 4 55 5 -2 9 -26 9
-52z m-2641 11 c-3 -3 -12 -4 -19 -1 -8 3 -5 6 6 6 11 1 17 -2 13 -5z m-1125
-16 c-14 -14 -16 -32 -2 -23 6 3 10 -3 10 -14 0 -11 -4 -23 -10 -26 -5 -3 -10
-16 -9 -28 1 -21 2 -20 9 3 6 18 8 12 5 -25 -1 -27 -6 -59 -11 -69 -4 -11 -4
-17 2 -14 5 4 10 -10 10 -30 2 -58 -14 -11 -41 116 -7 31 -12 52 -23 87 -9 30
-9 30 32 33 32 2 38 0 28 -10z m4915 -8 c-3 -10 0 -21 6 -23 8 -2 6 -12 -6
-30 -22 -34 -22 -49 0 -18 l16 24 9 -23 c5 -14 4 -28 -3 -36 -6 -7 -8 -17 -6
-21 7 -11 -20 -46 -30 -40 -4 2 -17 0 -28 -4 -18 -9 -18 -9 3 -5 12 2 22 0 22
-5 0 -5 -4 -9 -9 -9 -5 0 -16 -6 -23 -13 -42 -40 -192 -97 -210 -79 -6 6 6 12
34 16 32 5 39 9 28 16 -8 5 -24 10 -35 10 -17 0 -17 -2 -5 -10 12 -8 11 -10
-7 -10 -13 0 -23 3 -23 8 1 23 20 30 92 28 l77 -1 -6 25 -6 25 22 -20 23 -20
-7 38 c-7 37 -7 38 18 32 19 -5 26 -2 30 12 3 13 5 12 6 -6 2 -36 23 -11 26
30 2 26 1 29 -7 16 -12 -23 -28 -12 -26 18 1 13 6 21 11 18 4 -2 7 6 6 19 -3
33 0 58 7 58 4 0 4 -9 1 -20z m-3772 -59 c2 -11 7 -26 10 -31 3 -6 1 -10 -5
-10 -7 0 -4 -7 5 -16 14 -15 14 -18 0 -33 -8 -10 -15 -24 -15 -31 0 -9 5 -7
14 6 17 22 17 22 39 -66 l14 -55 -41 -2 c-30 -2 -37 0 -26 7 11 8 12 12 3 18
-9 6 -7 11 6 19 16 10 17 8 14 -15 -3 -22 -2 -24 6 -10 12 17 11 68 0 68 -4 0
-10 -7 -13 -16 -15 -38 -25 4 -23 95 2 100 4 112 12 72z m-3946 -4 c0 -9 -2
-8 -6 1 -2 6 -10 9 -15 6 -7 -4 -8 -2 -4 5 9 13 26 5 25 -12z m6575 -67 c4
-25 3 -31 -4 -20 -5 8 -10 26 -10 39 0 32 6 24 14 -19z m76 -28 c0 -15 -2 -15
-10 -2 -7 12 -10 8 -10 -15 0 -18 3 -25 8 -18 4 7 8 -14 8 -45 1 -50 0 -53 -9
-27 -5 17 -12 50 -16 76 -6 39 -5 45 11 46 11 1 18 -5 18 -15z m-44 -56 c-3
-34 -2 -44 4 -31 l9 20 2 -20 c1 -11 3 -27 5 -35 1 -8 2 -22 3 -30 1 -13 3
-13 10 -1 6 9 8 -2 6 -30 l-3 -44 164 1 c102 1 167 -3 171 -9 3 -6 1 -7 -5 -3
-6 3 -13 2 -17 -4 -3 -5 2 -10 12 -11 10 -1 2 -5 -17 -10 -89 -22 -131 -25
-209 -15 -71 10 -65 20 9 17 21 0 19 1 -8 10 -19 6 -39 6 -48 1 -38 -21 -94
50 -77 96 4 8 2 13 -3 9 -11 -6 -13 2 -17 90 -3 38 0 60 6 56 5 -3 7 -28 3
-57z m-18 13 c-3 -8 -7 -3 -11 10 -4 17 -3 21 5 13 5 -5 8 -16 6 -23z m-3702
-177 c1 -40 -2 -75 -6 -77 -5 -3 -6 4 -3 14 3 11 1 27 -4 35 -7 12 -9 6 -9
-21 0 -22 6 -44 15 -51 9 -8 10 -11 4 -7 -7 3 -13 0 -14 -7 0 -7 -5 -2 -10 11
-5 13 -7 33 -3 44 4 12 2 17 -4 13 -7 -4 -9 5 -6 26 3 18 1 44 -5 58 -9 22
-10 20 -6 -15 6 -44 1 -39 -13 15 l-9 35 36 0 36 0 1 -73z m4394 68 c-13 -8
-13 -10 0 -10 26 0 -6 -22 -37 -25 -15 -1 -35 -5 -43 -9 -56 -22 -70 -25 -70
-16 0 6 6 10 14 10 8 0 18 5 22 11 4 8 0 9 -15 4 -12 -4 -21 -2 -21 4 0 6 12
12 28 12 l27 2 -27 4 c-54 8 -27 19 55 21 56 1 77 -1 67 -8z m110 0 c-33 -11
-52 -12 -46 -2 2 4 19 8 38 9 30 1 31 1 8 -7z m-63 -16 c-3 -3 -12 -4 -19 -1
-8 3 -5 6 6 6 11 1 17 -2 13 -5z m-3302 -53 c2 -11 7 -26 11 -33 4 -7 3 -8 -4
-4 -7 4 -12 2 -12 -3 0 -6 4 -11 9 -11 9 0 32 -80 32 -112 0 -10 5 -20 10 -23
5 -4 6 -11 3 -17 -4 -6 0 -14 7 -19 7 -4 10 -11 6 -15 -11 -11 -36 16 -30 34
4 15 3 15 -7 2 -9 -12 -10 -9 -6 15 5 26 5 27 -5 11 -9 -14 -9 -24 0 -37 15
-25 14 -29 -5 -29 -14 0 -16 7 -10 43 9 53 15 128 9 105 -10 -38 -18 -15 -20
53 -1 68 3 84 12 40z m3064 -5 c-10 -10 -55 -13 -74 -5 -14 5 -6 8 29 8 27 1
47 -1 45 -3z m-6938 -39 c-10 -9 -11 -8 -5 6 3 10 9 15 12 12 3 -3 0 -11 -7
-18z m6866 17 c-3 -3 -12 -4 -19 -1 -8 3 -5 6 6 6 11 1 17 -2 13 -5z m-2996
-131 c-8 -15 -10 -15 -11 -2 0 17 10 32 18 25 2 -3 -1 -13 -7 -23z m-1133 -34
c-3 -8 -7 -3 -11 10 -4 17 -3 21 5 13 5 -5 8 -16 6 -23z m35 -116 c9 -8 20 44
12 56 -3 6 1 11 10 11 9 0 14 -4 11 -9 -4 -5 -2 -21 4 -35 7 -19 6 -26 -3 -26
-9 0 -9 -2 0 -8 13 -8 15 -174 2 -166 -6 3 -18 49 -24 94 -1 8 -5 22 -7 30 -3
8 -3 11 0 6 2 -4 9 -2 14 5 7 10 8 9 4 -6 -3 -11 -2 -26 2 -32 5 -8 8 2 9 23
1 24 -3 34 -11 31 -23 -9 -35 8 -40 53 -5 39 -4 40 3 12 5 -18 11 -36 14 -39z
m4 25 c-3 -8 -6 -5 -6 6 -1 11 2 17 5 13 3 -3 4 -12 1 -19z m1179 -59 c-1 -16
1 -29 5 -29 10 0 21 -32 14 -39 -3 -3 -10 0 -14 8 -5 8 -8 1 -7 -18 1 -25 3
-28 12 -16 6 8 14 12 17 8 4 -3 2 -12 -4 -20 -7 -7 -7 -13 -2 -13 15 0 34 -50
27 -72 -5 -16 -3 -19 7 -13 8 5 11 4 6 -1 -5 -5 -23 -10 -41 -10 -32 -1 -32
-1 -26 35 4 21 11 35 19 33 7 -1 9 2 6 8 -4 6 -12 9 -19 7 -8 -3 -11 23 -12
90 -1 52 2 89 6 83 4 -7 7 -26 6 -41z m3900 -211 c3 -4 -1 -5 -10 -4 -8 1 -18
5 -22 8 -3 4 1 5 10 4 8 -1 18 -5 22 -8z m-4992 -17 c3 8 4 3 1 -11 -5 -25 -5
-25 6 -2 7 12 15 22 18 22 3 0 6 -57 7 -126 0 -85 -3 -118 -9 -102 -14 36 -16
69 -5 100 7 20 7 33 -1 42 -8 10 -9 16 -1 21 12 8 13 25 1 25 -15 0 -22 -32
-10 -46 6 -7 8 -23 4 -35 -5 -16 -9 -18 -15 -9 -5 7 -6 19 -3 27 3 7 -1 13 -8
13 -7 0 -10 3 -6 6 3 3 2 17 -3 30 -11 27 -2 63 10 44 6 -9 9 -9 14 1z m1163
-83 c-7 -10 -13 -14 -15 -8 -7 19 -22 10 -19 -12 2 -18 -3 -23 -20 -21 -13 2
-23 -2 -23 -7 0 -6 6 -10 13 -10 6 0 4 -5 -6 -11 -10 -6 -25 -8 -35 -6 -13 4
-12 5 4 6 19 1 21 6 18 42 l-4 41 40 -4 c35 -3 40 -1 40 17 0 16 2 17 9 6 6
-9 5 -21 -2 -33z m3428 -48 c-3 -5 -12 -10 -18 -10 -7 0 -6 4 3 10 19 12 23
12 15 0z m-3556 -34 l24 -13 -21 -12 c-12 -6 -25 -10 -29 -9 -4 1 -22 -6 -40
-15 -43 -23 -48 -22 -51 12 -2 27 1 31 40 39 24 6 45 10 48 11 3 0 16 -6 29
-13z m-174 -78 c-22 -5 -48 -10 -57 -11 -10 -2 -21 -6 -24 -10 -11 -11 -24 -8
-24 6 0 13 -88 15 -136 3 -13 -4 -24 -2 -24 3 0 15 26 18 170 18 103 0 125 -2
95 -9z m-3327 -23 c-3 -3 -9 2 -12 12 -6 14 -5 15 5 6 7 -7 10 -15 7 -18z
m3212 -7 c0 -6 -11 -7 -25 -4 -14 4 -25 2 -25 -4 0 -5 -7 -10 -16 -10 -8 0
-12 5 -9 10 4 6 -5 10 -19 10 -14 0 -26 -4 -26 -10 0 -5 6 -10 13 -10 8 0 7
-4 -3 -10 -8 -5 -22 -10 -30 -10 -13 0 -13 1 0 10 10 6 11 10 3 10 -19 0 -15
18 5 23 36 8 132 5 132 -5z m-683 -58 c1 -11 -2 -20 -5 -20 -4 0 -8 9 -9 20
-1 11 2 20 5 20 4 0 8 -9 9 -20z m47 -21 c-2 -4 5 -5 15 -2 13 3 23 -2 30 -16
12 -21 -2 -31 -14 -11 -3 6 -17 10 -30 10 -13 0 -27 5 -31 12 -4 7 -3 8 4 4 7
-4 12 -2 12 3 0 6 -4 11 -10 11 -5 0 -7 7 -4 15 6 14 8 13 19 -2 7 -10 11 -21
9 -24z m61 16 c25 -26 33 -55 15 -55 -5 0 -7 6 -4 14 3 9 -6 21 -25 32 -16 10
-28 21 -25 26 8 12 11 10 39 -17z m250 9 c13 -5 16 -4 11 4 -5 9 11 11 58 10
36 -1 62 -6 60 -10 -3 -5 -9 -6 -13 -3 -5 2 -32 -5 -62 -15 -37 -14 -65 -18
-89 -13 -33 6 -34 7 -10 14 19 5 12 7 -25 7 -38 1 -45 -1 -29 -8 37 -14 36
-28 -2 -40 -41 -14 -53 -7 -36 20 7 12 8 20 2 20 -5 0 -10 7 -10 15 0 13 11
15 63 11 35 -3 72 -8 82 -12z m-182 -71 c-7 -2 -19 -2 -25 0 -7 3 -2 5 12 5
14 0 19 -2 13 -5z m-2555 -178 c-3 -3 -9 2 -12 12 -6 14 -5 15 5 6 7 -7 10
-15 7 -18z m50 -120 c-3 -3 -9 2 -12 12 -6 14 -5 15 5 6 7 -7 10 -15 7 -18z
m3765 -30 c-3 -9 -8 -14 -10 -11 -3 3 -2 9 2 15 9 16 15 13 8 -4z m3170 -55
c4 0 5 6 1 13 -4 6 0 5 9 -3 38 -37 69 -412 56 -680 -21 -442 -121 -772 -410
-1353 -38 -77 -66 -144 -62 -150 3 -7 2 -9 -2 -4 -8 7 -29 -23 -80 -118 -15
-27 -40 -71 -57 -97 -17 -28 -27 -53 -22 -60 4 -7 3 -10 -1 -5 -14 12 -87
-112 -80 -136 4 -15 3 -18 -3 -9 -7 10 -13 7 -28 -15 -10 -15 -19 -30 -19 -33
-1 -7 -38 -60 -159 -228 -55 -75 -100 -145 -101 -154 -1 -10 -5 -21 -10 -25
-4 -5 -5 -2 -1 5 12 21 -8 13 -22 -8 -7 -12 -10 -26 -6 -32 4 -7 3 -8 -4 -4
-6 4 -21 -7 -33 -24 -15 -19 -26 -27 -33 -20 -6 6 -5 14 1 22 12 14 29 83 43
170 7 47 21 76 73 150 96 139 224 344 322 518 105 184 306 583 368 730 199
472 276 972 231 1505 -5 58 -4 68 7 58 7 -7 17 -13 22 -13z m-3244 -47 c-4
-22 3 -24 24 -7 22 19 22 19 4 -2 -28 -33 -50 -25 -38 14 2 6 11 1 10 -5z
m-3608 -30 c13 -16 12 -17 -3 -4 -17 13 -22 21 -14 21 2 0 10 -8 17 -17z
m3557 -25 c-2 -7 3 -12 10 -10 17 3 15 -3 -5 -19 -10 -8 -14 -9 -10 -2 4 6 3
14 -3 18 -6 4 -8 11 -5 16 9 13 15 11 13 -3z m-183 -108 c-3 -5 -12 -10 -18
-10 -7 0 -6 4 3 10 19 12 23 12 15 0z m-1099 -91 c3 -6 2 -15 -4 -21 -6 -6
-12 -6 -17 3 -5 8 -4 10 3 5 7 -4 12 -3 12 3 0 5 -6 12 -12 14 -10 4 -10 6 -1
6 6 1 15 -4 19 -10z m4924 -193 c5 -32 21 -171 35 -309 79 -794 74 -1757 -15
-2484 -11 -89 -23 -183 -25 -210 -17 -159 -105 -642 -171 -941 -14 -63 -23
-120 -20 -128 3 -9 1 -12 -4 -9 -6 3 -10 -1 -10 -10 0 -43 -149 -597 -216
-804 -18 -57 -31 -109 -27 -114 3 -6 2 -7 -3 -4 -5 3 -18 -25 -29 -61 -10 -37
-27 -87 -37 -111 -10 -25 -16 -51 -14 -58 3 -8 1 -11 -4 -8 -6 3 -10 1 -10 -6
0 -27 -196 -530 -290 -744 -34 -77 -63 -144 -64 -150 -4 -14 -99 -211 -183
-380 -72 -144 -224 -427 -295 -549 -22 -38 -41 -81 -42 -97 -1 -16 -7 -33 -14
-39 -9 -7 -9 -7 -2 2 6 7 10 16 10 21 0 19 -21 -8 -60 -76 -55 -97 -147 -250
-157 -262 -30 -37 -63 -98 -57 -107 4 -6 3 -8 -3 -5 -14 9 -46 -41 -39 -59 3
-8 2 -12 -4 -9 -12 7 -44 -41 -35 -55 4 -6 1 -9 -6 -8 -7 2 -19 -10 -28 -27
-9 -16 -20 -32 -24 -34 -16 -7 -57 -82 -51 -93 4 -6 3 -8 -3 -5 -6 4 -17 -1
-24 -10 -12 -14 -12 -16 1 -9 8 4 5 -1 -7 -10 -13 -9 -23 -22 -23 -29 0 -6 -9
-20 -20 -30 -11 -10 -20 -23 -20 -29 0 -5 -12 -21 -27 -34 -16 -13 -21 -20
-13 -16 8 4 3 -5 -12 -22 -14 -16 -62 -74 -106 -129 -173 -217 -596 -658 -882
-919 -85 -77 -162 -147 -170 -155 -65 -62 -425 -362 -585 -487 -280 -219 -775
-560 -1026 -707 -45 -27 -47 -27 -52 -8 -3 12 0 19 6 18 6 -1 13 8 15 20 2 12
10 27 18 33 8 7 14 16 14 20 0 4 25 60 56 124 30 64 52 121 48 128 -4 6 -3 8
3 5 6 -4 31 39 59 101 27 59 58 123 69 142 21 34 175 355 175 364 0 2 25 58
56 123 31 65 73 154 94 198 21 44 59 124 84 178 26 54 44 102 40 108 -3 5 -1
8 6 7 6 -2 26 33 45 77 19 44 44 96 55 116 23 42 25 53 8 43 -7 -4 -8 -3 -4 5
4 6 11 9 14 7 4 -2 36 57 71 132 36 75 84 178 109 229 24 51 40 98 36 104 -4
8 -3 9 4 5 7 -4 17 6 25 26 8 18 33 72 56 120 24 48 39 93 35 99 -4 7 -3 9 4
5 6 -3 40 56 87 151 104 213 126 268 128 318 1 24 5 41 10 38 11 -7 8 139 -4
199 -14 70 -59 169 -72 161 -6 -4 -7 -1 -2 6 4 8 -5 28 -24 51 -17 21 -31 43
-31 49 0 6 -12 18 -27 28 -16 10 -40 30 -55 44 l-27 26 18 49 c95 252 17 570
-184 755 -84 78 -120 98 -457 258 -183 87 -400 190 -482 230 -82 39 -150 71
-151 71 -2 0 -91 43 -200 95 -108 52 -198 95 -200 95 -1 0 -87 41 -191 91
-104 50 -204 97 -221 104 -18 8 -33 19 -33 25 0 6 -5 8 -12 4 -7 -4 -8 -3 -4
5 4 6 11 9 16 6 5 -3 15 7 22 22 34 67 112 209 119 219 5 6 6 14 2 17 -3 4 -2
7 4 7 14 0 35 49 27 62 -5 7 -2 8 6 3 9 -6 10 -1 5 16 -4 16 -3 19 3 11 11
-16 18 -5 86 121 52 95 54 120 15 156 l-22 20 28 48 c48 82 163 188 246 228
140 66 164 69 469 70 151 1 289 -2 305 -7 64 -18 551 -59 763 -65 211 -6 223
-5 238 13 9 10 13 13 9 7 -4 -9 5 -13 34 -13 50 0 253 27 306 41 22 5 47 11
55 13 8 1 34 6 58 11 23 4 42 12 42 17 0 5 4 7 9 3 15 -8 161 37 154 48 -3 6
-1 7 5 3 6 -3 35 3 65 14 51 19 290 136 332 162 151 95 191 123 198 134 4 8
13 14 20 14 7 0 26 13 44 28 17 15 48 40 67 55 20 16 33 33 30 39 -4 7 -2 8 5
4 7 -5 38 18 79 56 37 35 90 81 117 103 52 40 160 136 254 224 29 27 50 54 47
60 -5 7 -1 8 10 4 13 -5 16 -3 11 10 -4 12 -2 14 10 10 13 -5 15 -2 10 11 -4
10 -3 15 3 11 6 -4 27 13 48 36 20 24 47 53 60 65 21 20 31 41 14 30 -4 -2 -8
4 -8 15 0 17 2 18 11 5 10 -13 16 -10 41 17 72 79 115 137 108 148 -4 7 -3 9
3 6 14 -9 47 29 38 43 -3 6 -1 9 6 8 10 -3 32 21 99 112 107 143 105 140 100
165 -1 5 2 7 6 3 10 -10 85 92 77 105 -3 6 -2 8 3 4 13 -8 157 230 148 244 -4
7 -3 9 4 5 6 -4 25 19 47 56 19 35 40 70 45 78 6 8 21 35 33 60 13 25 41 74
61 110 33 58 200 394 246 495 10 22 33 74 53 115 84 183 163 476 203 756 9 60
18 198 21 307 3 109 7 196 10 194 2 -2 8 -30 13 -61z m-4045 -296 c3 -5 0 -8
-7 -5 -18 6 -143 -51 -143 -66 0 -7 -7 -14 -15 -16 -13 -4 -13 -3 0 6 13 9 13
11 -1 11 -8 0 -24 -8 -35 -17 -11 -10 -26 -19 -34 -21 -18 -4 -124 -67 -167
-100 -18 -13 -30 -29 -26 -35 3 -6 1 -7 -6 -3 -17 11 -108 -62 -239 -192 -72
-71 -112 -118 -108 -127 3 -8 0 -17 -6 -21 -7 -4 -8 -3 -4 4 4 7 4 12 -1 12
-11 -1 -135 -166 -157 -208 -9 -18 -14 -37 -11 -43 4 -5 1 -8 -6 -7 -17 4
-115 -186 -164 -317 -127 -340 -159 -739 -85 -1095 10 -52 18 -96 16 -98 -2
-2 -17 32 -34 75 -209 548 -115 1177 245 1646 219 284 520 490 883 602 86 27
97 29 105 15z m930 -68 c-3 -3 -11 0 -18 7 -9 10 -8 11 6 5 10 -3 15 -9 12
-12z m660 -12 c10 -11 16 -20 13 -20 -3 0 -13 9 -23 20 -10 11 -16 20 -13 20
3 0 13 -9 23 -20z m-710 -44 c141 -15 286 -45 363 -74 57 -22 118 -62 219
-144 86 -70 99 -87 47 -60 -69 35 -206 79 -319 103 -151 31 -384 31 -530 0
-188 -40 -352 -108 -510 -212 -103 -68 -304 -269 -374 -374 -107 -161 -188
-365 -222 -555 -7 -41 -13 -140 -13 -220 0 -375 140 -713 405 -979 145 -145
299 -245 497 -321 59 -23 134 -57 167 -76 82 -48 81 -48 166 -82 62 -25 235
-71 314 -85 47 -8 -212 -101 -385 -139 -92 -20 -134 -23 -330 -23 -195 0 -239
3 -331 22 -153 33 -252 68 -320 113 -34 22 -65 37 -71 34 -6 -4 -8 -3 -5 3 10
16 -109 114 -130 107 -15 -5 -15 -4 -3 4 12 9 3 23 -50 80 -36 38 -79 86 -96
108 -47 59 -144 206 -144 217 0 6 -6 18 -14 26 -20 22 -98 208 -131 311 -40
128 -65 296 -71 480 -7 188 12 330 67 519 55 189 170 414 281 552 26 32 45 59
42 59 -3 0 8 12 25 26 17 14 28 30 25 35 -3 5 -2 9 3 8 4 -1 35 24 68 55 33
32 90 83 127 113 38 30 65 60 61 66 -3 5 -1 7 5 4 13 -9 158 80 154 94 -1 6 2
8 8 4 14 -9 52 14 44 27 -5 7 -2 8 5 3 8 -4 47 8 94 30 45 20 91 41 102 46 84
36 317 87 452 98 146 12 167 12 308 -3z m875 -72 c0 -8 -19 -13 -24 -6 -3 5 1
9 9 9 8 0 15 -2 15 -3z m134 -152 c3 -5 -1 -9 -9 -9 -8 0 -12 4 -9 9 3 4 7 8
9 8 2 0 6 -4 9 -8z m43 -47 c0 -8 -4 -12 -9 -9 -5 3 -6 10 -3 15 9 13 12 11
12 -6z m27 -40 c5 0 10 -6 12 -13 1 -7 0 -8 -3 -2 -2 5 -8 8 -13 5 -4 -3 -14
3 -21 12 -12 15 -12 16 1 8 8 -6 19 -10 24 -10z m31 -35 c-3 -5 -12 -10 -18
-10 -7 0 -6 4 3 10 19 12 23 12 15 0z m19 -18 c3 -5 -1 -9 -9 -9 -8 0 -12 4
-9 9 3 4 7 8 9 8 2 0 6 -4 9 -8z m41 -72 c3 -5 1 -10 -4 -10 -6 0 -11 5 -11
10 0 6 2 10 4 10 3 0 8 -4 11 -10z m-1424 -56 c-118 -63 -201 -124 -305 -224
-323 -311 -467 -730 -409 -1192 3 -26 8 -46 12 -44 3 2 7 -17 7 -42 l2 -46
-19 34 c-22 42 -64 167 -79 233 -79 365 37 757 304 1023 133 131 307 236 471
283 105 30 108 25 16 -25z m1454 27 c-9 -8 -36 -10 -30 -2 2 4 11 8 20 8 8 0
13 -3 10 -6z m226 -88 c13 -16 12 -17 -3 -4 -17 13 -22 21 -14 21 2 0 10 -8
17 -17z m-804 -57 c73 -16 130 -54 224 -153 127 -133 222 -297 275 -478 32
-111 45 -347 24 -473 -25 -156 -89 -317 -180 -453 -56 -82 -207 -233 -289
-289 -128 -86 -287 -151 -441 -181 -145 -27 -427 -7 -512 37 -16 8 -71 56
-122 107 -87 87 -132 145 -186 244 -13 23 -27 40 -31 37 -5 -3 -6 3 -2 12 5
13 3 15 -7 9 -8 -5 -11 -4 -6 3 3 6 -4 39 -17 74 -46 122 -70 245 -71 373 -1
116 6 234 17 265 39 119 56 184 51 192 -4 7 -2 8 4 4 7 -4 13 -2 13 3 4 33 26
76 95 182 73 112 182 226 285 299 41 28 74 55 74 60 0 5 4 12 9 17 5 5 6 3 2
-4 -4 -7 -5 -13 -2 -13 10 0 106 51 111 60 3 5 13 6 22 3 12 -5 14 -3 8 7 -5
8 -4 11 3 6 6 -3 34 2 64 13 29 11 69 23 88 26 19 4 39 10 44 13 5 3 35 7 65
10 31 2 58 6 61 9 9 10 263 -7 327 -21z m827 -532 c3 -8 2 -12 -4 -9 -6 3 -10
10 -10 16 0 14 7 11 14 -7z m67 -559 c2 -185 -7 -220 -71 -300 -30 -37 -32
-38 -26 -13 26 110 48 288 53 433 l6 170 18 -80 c12 -52 19 -126 20 -210z
m237 180 c-3 -3 -9 2 -12 12 -6 14 -5 15 5 6 7 -7 10 -15 7 -18z m-38 -98 c0
-2 -10 -12 -22 -23 l-23 -19 19 23 c18 21 26 27 26 19z m-60 -73 c0 -8 -19
-13 -24 -6 -3 5 1 9 9 9 8 0 15 -2 15 -3z m-44 -56 c4 -7 4 -10 -1 -6 -4 4
-15 2 -24 -5 -14 -11 -14 -10 -2 6 16 20 18 21 27 5z m-66 -112 c0 -3 -4 -8
-10 -11 -5 -3 -10 -1 -10 4 0 6 5 11 10 11 6 0 10 -2 10 -4z m-2440 -200 c0
-2 -8 -10 -17 -17 -16 -13 -17 -12 -4 4 13 16 21 21 21 13z m2574 -124 c3 -5
-1 -9 -9 -9 -8 0 -12 4 -9 9 3 4 7 8 9 8 2 0 6 -4 9 -8z m-2490 -41 c-2 -3
-12 3 -22 13 -16 17 -16 18 5 5 12 -7 20 -15 17 -18z m107 -98 c12 -16 12 -17
-2 -6 -9 7 -20 9 -24 5 -5 -4 -5 -1 -1 6 9 16 11 15 27 -5z m120 -120 c13 -16
12 -17 -3 -4 -17 13 -22 21 -14 21 2 0 10 -8 17 -17z m2026 -13 c1 -11 -2 -22
-6 -24 -6 -4 -7 26 -2 42 3 8 7 -1 8 -18z m-1962 -20 c-3 -5 -12 -10 -18 -10
-7 0 -6 4 3 10 19 12 23 12 15 0z m-1389 -22 c0 -10 -1 -18 -3 -18 -1 0 -7 8
-12 18 -7 13 -6 19 2 19 7 0 13 -9 13 -19z m3298 -30 c-4 -5 -9 -7 -12 -4 -3
3 -12 0 -21 -7 -14 -10 -14 -10 -4 4 13 16 46 23 37 7z m-3233 -25 c13 -16 12
-17 -3 -4 -17 13 -22 21 -14 21 2 0 10 -8 17 -17z m3159 -26 c0 -2 -12 -14
-27 -28 l-28 -24 24 28 c23 25 31 32 31 24z m-3130 -13 c0 -8 -19 -13 -24 -6
-3 5 1 9 9 9 8 0 15 -2 15 -3z m53 -45 c-8 -8 -13 -7 -18 2 -5 8 -4 10 3 5 7
-4 12 -2 12 5 0 7 3 9 7 6 4 -4 2 -12 -4 -18z m12 -39 c3 -6 -1 -7 -9 -4 -18
7 -21 14 -7 14 6 0 13 -4 16 -10z m28 -30 c3 6 4 5 3 -2 -4 -16 32 -57 48 -54
6 2 7 1 3 -2 -4 -2 -3 -10 4 -18 27 -33 0 -10 -46 38 -28 29 -43 46 -33 40 11
-9 18 -9 21 -2z m2877 -24 c0 -2 -8 -10 -17 -17 -16 -13 -17 -12 -4 4 13 16
21 21 21 13z m30 -10 c0 -2 -7 -7 -16 -10 -8 -3 -12 -2 -9 4 6 10 25 14 25 6z
m-529 -50 c-11 -13 -51 -29 -51 -20 0 3 51 33 59 34 2 0 -2 -6 -8 -14z m-2256
-16 c10 -11 16 -20 13 -20 -3 0 -13 9 -23 20 -10 11 -16 20 -13 20 3 0 13 -9
23 -20z m2192 -25 c0 -8 -4 -12 -9 -9 -5 3 -6 10 -3 15 9 13 12 11 12 -6z
m-47 -51 c0 -8 -19 -13 -24 -6 -3 5 1 9 9 9 8 0 15 -2 15 -3z m-40 -17 c0 -2
-10 -12 -22 -23 l-23 -19 19 23 c18 21 26 27 26 19z m475 -16 c3 -5 2 -12 -3
-15 -5 -3 -9 1 -9 9 0 17 3 19 12 6z m35 -54 c-112 -106 -272 -214 -435 -295
-60 -29 -102 -51 -92 -48 11 3 16 2 12 -5 -4 -5 -14 -7 -23 -5 -20 7 -155 -38
-145 -48 3 -3 4 -6 0 -6 -3 0 -8 4 -11 9 -4 5 24 26 61 47 90 50 258 162 330
221 61 50 134 93 169 99 11 2 50 17 85 33 83 39 92 38 49 -2z m-2401 20 c-2
-1 -13 -9 -24 -17 -19 -14 -19 -14 -6 3 7 9 18 17 24 17 6 0 8 -1 6 -3z m1749
-52 c-3 -3 -9 2 -12 12 -6 14 -5 15 5 6 7 -7 10 -15 7 -18z m-1737 -2 c13 -17
13 -17 -6 -3 -11 8 -22 16 -24 17 -2 2 0 3 6 3 6 0 17 -8 24 -17z m2353 -28
c-4 -8 -11 -12 -16 -9 -6 4 -5 10 3 15 19 12 19 11 13 -6z m-764 1 c0 -2 -7
-7 -16 -10 -8 -3 -12 -2 -9 4 6 10 25 14 25 6z m-1470 -10 c0 -2 -8 -10 -17
-17 -16 -13 -17 -12 -4 4 13 16 21 21 21 13z m2365 -146 c-3 -5 -12 -10 -18
-10 -7 0 -6 4 3 10 19 12 23 12 15 0z m-3310 -370 c-4 -6 -11 -8 -16 -5 -5 4
-9 1 -9 -6 0 -7 -3 -10 -6 -6 -7 7 -99 -60 -155 -113 -63 -59 -130 -144 -124
-158 2 -7 1 -10 -5 -7 -5 3 -21 -15 -36 -40 -31 -53 -48 -53 -102 0 l-32 32
43 59 c61 83 137 148 221 189 99 49 238 83 221 55z m1750 -49 c3 -5 2 -12 -3
-15 -5 -3 -9 1 -9 9 0 17 3 19 12 6z m895 5 c0 -2 -7 -7 -16 -10 -8 -3 -12 -2
-9 4 6 10 25 14 25 6z m-2745 -46 c3 -6 -1 -7 -9 -4 -18 7 -21 14 -7 14 6 0
13 -4 16 -10z m-211 -236 c3 -8 2 -12 -4 -9 -6 3 -10 10 -10 16 0 14 7 11 14
-7z m-31 -44 c-3 -12 -8 -19 -11 -16 -5 6 5 36 12 36 2 0 2 -9 -1 -20z m-81
-124 c7 4 8 2 4 -5 -9 -13 -26 -5 -25 12 0 9 2 8 6 -1 2 -6 10 -9 15 -6z
m5734 -88 c3 -4 -1 -5 -10 -4 -8 1 -18 5 -22 8 -3 4 1 5 10 4 8 -1 18 -5 22
-8z m-6929 -326 c26 -11 239 -110 473 -222 361 -172 1230 -585 2035 -968 116
-54 251 -119 300 -142 116 -56 211 -147 244 -235 33 -89 44 -153 37 -221 -9
-85 -13 -95 -181 -449 -81 -170 -171 -359 -200 -420 -29 -60 -96 -202 -150
-315 -93 -195 -156 -327 -231 -487 -18 -39 -72 -151 -119 -248 -47 -98 -85
-179 -85 -180 0 -2 -40 -87 -90 -190 -49 -103 -90 -188 -90 -190 0 -1 -38 -81
-84 -177 -47 -96 -100 -208 -119 -249 -19 -41 -81 -171 -137 -289 -56 -118
-123 -258 -147 -310 -25 -52 -156 -327 -290 -610 -256 -537 -540 -1135 -746
-1570 -66 -140 -129 -268 -140 -285 -87 -130 -222 -206 -367 -207 -124 -1 13
-61 -1530 672 -217 104 -642 306 -945 449 -302 144 -574 278 -603 298 -66 45
-133 137 -161 220 -25 74 -28 197 -7 264 7 24 129 287 271 584 141 297 274
576 295 620 94 199 145 307 335 705 144 303 179 376 332 700 78 162 252 529
388 815 136 286 285 599 330 695 46 96 153 324 240 505 86 182 170 358 186
392 180 382 414 864 436 896 15 22 52 60 82 83 123 97 294 122 438 66z m1008
-170 c-3 -3 -11 0 -18 7 -9 10 -8 11 6 5 10 -3 15 -9 12 -12z m50 -2 c4 -6 -1
-7 -11 -3 -13 5 -15 3 -9 -7 5 -9 4 -11 -4 -6 -6 4 -9 12 -6 17 8 12 22 12 30
-1z m55 6 c0 -2 -12 -11 -27 -20 l-28 -17 24 20 c23 21 31 25 31 17z m5326
-718 c4 -7 3 -8 -4 -4 -15 9 -16 -6 -2 -22 5 -7 3 -6 -6 2 -9 8 -13 19 -10 25
9 14 13 14 22 -1z m-152 -326 c3 -5 -1 -9 -9 -9 -8 0 -12 4 -9 9 3 4 7 8 9 8
2 0 6 -4 9 -8z m-4 -28 c0 -8 -19 -13 -24 -6 -3 5 1 9 9 9 8 0 15 -2 15 -3z
m-69 -107 c-10 -9 -11 -8 -5 6 3 10 9 15 12 12 3 -3 0 -11 -7 -18z m-18 -52
c-3 -9 -8 -14 -10 -11 -3 3 -2 9 2 15 9 16 15 13 8 -4z m-52 -88 c-10 -9 -11
-8 -5 6 3 10 9 15 12 12 3 -3 0 -11 -7 -18z m-154 -44 c1 -22 -1 -24 -8 -10
-6 9 -7 22 -4 27 9 14 10 13 12 -17z m73 -102 c-5 -11 -15 -23 -21 -27 -6 -3
-3 5 6 20 20 30 30 35 15 7z m-402 -611 c-7 -10 -14 -17 -17 -15 -4 4 18 35
25 35 2 0 -1 -9 -8 -20z m20 -10 c-7 -10 -14 -17 -17 -15 -4 4 18 35 25 35 2
0 -1 -9 -8 -20z m-2517 -103 c-10 -9 -11 -8 -5 6 3 10 9 15 12 12 3 -3 0 -11
-7 -18z m21 -9 c-8 -8 -9 -4 -5 13 4 13 8 18 11 10 2 -7 -1 -18 -6 -23z m2382
-46 c3 -5 -1 -9 -9 -9 -8 0 -12 4 -9 9 3 4 7 8 9 8 2 0 6 -4 9 -8z m-2457 -67
c0 -8 -4 -12 -9 -9 -5 3 -6 10 -3 15 9 13 12 11 12 -6z m2350 -47 c-3 -8 -6
-5 -6 6 -1 11 2 17 5 13 3 -3 4 -12 1 -19z m-27 -82 c0 -2 -7 -9 -15 -16 -13
-11 -14 -10 -9 4 5 14 24 23 24 12z m-92 -91 c-3 -3 -9 2 -12 12 -6 14 -5 15
5 6 7 -7 10 -15 7 -18z m-2362 -53 c-17 -16 -18 -16 -5 5 7 12 15 20 18 17 3
-2 -3 -12 -13 -22z m2250 -107 c-1 -8 -5 -17 -8 -21 -5 -4 -4 16 1 34 3 9 9
-1 7 -13z m-31 -65 c-10 -11 -21 -18 -23 -15 -3 3 3 12 14 20 27 20 30 18 9
-5z m-2722 -893 c3 -8 -1 -14 -8 -14 -7 0 -11 6 -8 14 3 7 6 13 8 13 2 0 5 -6
8 -13z m-32 -94 c13 -16 12 -17 -3 -4 -17 13 -22 21 -14 21 2 0 10 -8 17 -17z
m-93 -173 c-7 -10 -14 -17 -17 -15 -4 4 18 35 25 35 2 0 -1 -9 -8 -20z m-65
-133 c3 -8 -1 -14 -8 -14 -7 0 -11 6 -8 14 3 7 6 13 8 13 2 0 5 -6 8 -13z
m-78 -166 c3 -5 2 -12 -3 -15 -5 -3 -9 1 -9 9 0 17 3 19 12 6z m28 -26 c-3 -9
-8 -14 -10 -11 -3 3 -2 9 2 15 9 16 15 13 8 -4z m437 -60 c0 -5 -5 -3 -10 5
-5 8 -10 20 -10 25 0 6 5 3 10 -5 5 -8 10 -19 10 -25z m-499 2 c-10 -9 -11 -8
-5 6 3 10 9 15 12 12 3 -3 0 -11 -7 -18z m-68 -130 c3 -8 -1 -14 -8 -14 -7 0
-11 6 -8 14 3 7 6 13 8 13 2 0 5 -6 8 -13z m90 -852 c-3 -9 -8 -14 -10 -11 -3
3 -2 9 2 15 9 16 15 13 8 -4z m-526 -67 c-3 -8 -6 -5 -6 6 -1 11 2 17 5 13 3
-3 4 -12 1 -19z m-37 -82 c0 -2 -8 -10 -17 -17 -16 -13 -17 -12 -4 4 13 16 21
21 21 13z m413 -101 c-3 -9 -8 -14 -10 -11 -3 3 -2 9 2 15 9 16 15 13 8 -4z
m-53 -39 c0 -2 -7 -7 -16 -10 -8 -3 -12 -2 -9 4 6 10 25 14 25 6z m-467 -79
c3 -8 -1 -14 -8 -14 -7 0 -11 6 -8 14 3 7 6 13 8 13 2 0 5 -6 8 -13z m217 -63
c0 -8 -19 -13 -24 -6 -3 5 1 9 9 9 8 0 15 -2 15 -3z m-160 -84 c0 -5 -2 -10
-4 -10 -3 0 -8 5 -11 10 -3 6 -1 10 4 10 6 0 11 -4 11 -10z m-4685 -929 c3 -5
2 -12 -3 -15 -5 -3 -9 1 -9 9 0 17 3 19 12 6z m90 -49 c-3 -3 -11 0 -18 7 -9
10 -8 11 6 5 10 -3 15 -9 12 -12z m245 -127 c-15 -18 1 -20 19 -2 11 9 12 9 7
0 -11 -20 -45 -36 -42 -20 2 15 15 37 23 37 3 0 0 -7 -7 -15z m55 -33 c-3 -3
-11 0 -18 7 -9 10 -8 11 6 5 10 -3 15 -9 12 -12z m50 -2 c3 -6 -1 -7 -9 -4
-18 7 -21 14 -7 14 6 0 13 -4 16 -10z"/>
<path d="M16604 14554 c-657 -89 -1235 -516 -1530 -1129 -295 -612 -244 -1375
129 -1944 298 -454 709 -737 1262 -871 l41 -10 37 -347 c29 -267 44 -364 62
-416 62 -180 207 -312 398 -363 70 -18 205 -18 281 2 197 51 359 214 411 414
13 50 16 89 12 170 -6 100 -51 565 -61 621 -5 25 2 30 127 92 151 75 275 155
396 256 47 38 89 67 94 64 6 -3 7 -2 4 4 -6 9 40 61 49 56 2 -2 3 -2 2 0 -2 1
34 46 79 99 45 53 89 108 98 122 10 14 20 24 24 21 4 -2 8 1 8 8 0 7 20 44 45
82 25 39 55 89 67 113 12 23 26 42 32 42 6 0 8 4 5 8 -3 5 14 -1 37 -12 38
-19 118 -55 202 -91 17 -7 50 -22 75 -33 84 -37 545 -235 635 -273 49 -21 94
-35 99 -32 12 8 69 135 96 216 27 79 33 71 -80 118 -41 17 -88 37 -105 44 -16
8 -59 26 -95 40 -36 15 -105 45 -155 67 -114 51 -119 53 -305 133 -85 37 -184
80 -220 96 -50 21 -64 32 -62 46 2 10 8 20 13 21 5 2 7 8 4 13 -3 4 1 32 9 61
65 225 82 556 42 813 -13 83 -55 266 -71 307 -6 16 1 15 61 -8 38 -14 89 -35
114 -46 138 -61 600 -231 600 -221 0 24 -198 260 -312 373 -125 123 -143 137
-210 164 -40 16 -120 49 -178 74 -58 25 -140 60 -183 78 -44 19 -84 31 -89 27
-7 -3 -8 -1 -4 5 4 7 3 12 -2 12 -12 0 -45 50 -45 67 0 7 -2 11 -5 8 -3 -2
-26 24 -52 58 -71 93 -224 251 -325 336 -287 239 -635 392 -1017 446 -128 18
-407 18 -544 -1z m498 -319 c715 -94 1272 -616 1430 -1338 19 -89 22 -132 22
-327 0 -195 -3 -238 -22 -327 -124 -570 -504 -1024 -1030 -1233 -516 -204
-1084 -143 -1552 167 -86 57 -149 110 -251 212 -146 147 -229 260 -318 434
-220 432 -234 968 -37 1416 183 417 510 730 942 902 237 94 547 130 816 94z
m252 -3637 c3 -13 10 -66 15 -118 5 -52 19 -180 31 -283 20 -175 20 -192 6
-242 -22 -73 -70 -134 -136 -170 -47 -26 -65 -30 -130 -30 -65 0 -82 4 -130
31 -76 43 -127 117 -140 204 -12 76 -60 529 -60 559 0 20 6 21 109 21 104 0
294 20 371 39 54 14 59 13 64 -11z"/>
<path d="M16760 13830 c-523 -49 -965 -429 -1102 -947 -30 -113 -32 -126 -32
-313 0 -186 2 -200 32 -313 102 -386 369 -697 732 -852 284 -122 632 -132 923
-29 303 109 559 337 705 629 83 168 121 317 128 515 23 569 -325 1071 -870
1254 -149 50 -349 72 -516 56z m893 -1000 c67 -79 54 -205 -24 -245 -69 -36
-122 10 -134 114 -11 104 21 161 91 161 35 0 47 -5 67 -30z m-98 -416 c30 -32
39 -78 32 -149 -8 -82 -42 -143 -146 -268 -9 -10 -46 -41 -83 -68 -196 -146
-408 -181 -505 -84 -38 38 -43 75 -13 103 11 11 67 43 123 72 144 74 203 119
359 273 154 153 187 170 233 121z m-168 -689 c0 -8 -4 -12 -9 -9 -5 3 -6 10
-3 15 9 13 12 11 12 -6z"/>
<path d="M19555 25216 c-22 -7 -1212 -588 -2645 -1291 -1433 -703 -2704 -1326
-2825 -1385 -1499 -732 -3043 -1495 -3067 -1515 -115 -97 -163 -268 -112 -396
11 -25 399 -822 864 -1770 810 -1653 847 -1726 900 -1780 70 -70 143 -100 245
-100 38 0 88 6 110 14 22 8 164 76 315 150 151 74 426 209 610 299 184 90 472
231 640 314 168 82 420 206 560 275 l255 126 17 -56 c10 -31 167 -362 350
-735 370 -755 368 -752 485 -796 69 -26 168 -29 228 -7 22 8 193 90 380 182
187 92 556 273 820 403 264 129 608 298 765 375 157 77 384 188 505 247 880
430 832 405 886 479 63 88 79 210 41 306 -11 28 -105 221 -207 430 -103 209
-249 506 -325 660 -75 154 -149 295 -165 313 -15 18 -26 35 -24 37 5 5 413
208 524 260 50 24 243 118 430 210 187 92 435 214 550 270 772 377 864 424
905 461 103 93 144 231 105 360 -8 27 -82 185 -165 352 -82 167 -150 305 -150
307 0 1 -108 222 -240 490 -132 268 -240 488 -240 490 0 1 -108 222 -241 491
-133 269 -272 552 -309 629 -390 807 -401 825 -518 882 -66 32 -191 42 -257
19z m171 -206 c36 -18 49 -33 82 -98 100 -192 1665 -3391 1674 -3419 12 -44
-5 -102 -40 -136 -24 -23 -1459 -733 -2822 -1397 -190 -92 -487 -237 -660
-323 -173 -85 -657 -322 -1075 -527 -418 -205 -913 -448 -1100 -540 -187 -92
-691 -339 -1120 -550 -429 -210 -922 -452 -1095 -538 -620 -304 -620 -304
-669 -299 -24 3 -55 13 -70 24 -28 20 -158 274 -608 1193 -144 294 -337 688
-429 875 -744 1517 -706 1437 -702 1485 3 25 13 58 23 74 22 33 -2 21 1368
693 1346 660 1537 754 1812 888 127 62 358 176 515 252 778 382 1356 666 1555
763 121 59 846 415 1610 790 1584 778 1651 810 1684 810 14 0 44 -9 67 -20z
m-725 -5163 c29 -20 77 -111 366 -697 237 -482 332 -685 332 -710 2 -80 50
-53 -1095 -614 -582 -286 -1232 -605 -1444 -709 -585 -288 -753 -367 -778
-367 -13 0 -40 7 -59 17 -38 18 8 -71 -509 984 -205 419 -214 445 -177 498 15
22 213 123 998 506 116 56 329 161 475 233 638 313 918 450 1260 617 201 99
403 198 450 221 98 49 133 53 181 21z"/>
<path d="M19155 24460 c-121 -60 -228 -119 -237 -131 -10 -12 -18 -32 -18 -44
0 -34 215 -462 239 -474 11 -6 29 -11 40 -11 32 0 477 226 495 252 9 12 16 30
16 38 0 21 -203 435 -225 460 -34 38 -76 25 -310 -90z"/>
<path d="M18354 24066 c-225 -110 -264 -136 -264 -178 0 -10 49 -118 108 -241
97 -198 112 -225 140 -236 31 -13 40 -10 264 98 228 109 278 142 278 181 0 11
-49 120 -108 242 -88 182 -113 225 -136 236 -15 6 -32 12 -39 12 -7 0 -116
-51 -243 -114z"/>
<path d="M17536 23665 c-126 -62 -233 -119 -237 -127 -27 -41 -22 -59 82 -271
56 -117 112 -222 123 -234 35 -40 68 -30 314 91 226 112 252 130 252 175 0 31
-217 459 -239 470 -11 6 -30 11 -43 10 -13 0 -126 -52 -252 -114z"/>
<path d="M19435 23569 c-203 -99 -376 -188 -383 -198 -31 -39 -26 -57 86 -285
109 -223 125 -246 173 -246 29 0 739 347 762 372 9 11 17 33 17 49 0 31 -197
446 -221 466 -41 33 -55 28 -434 -158z"/>
<path d="M16719 23263 c-218 -110 -235 -120 -243 -150 -8 -29 2 -54 102 -257
110 -224 126 -247 174 -245 13 0 129 53 258 117 228 114 235 118 243 152 8 32
-1 54 -93 245 -56 116 -111 220 -123 233 -37 39 -69 30 -318 -95z"/>
<path d="M18395 23059 c-212 -105 -265 -141 -265 -177 0 -31 217 -460 238
-471 12 -6 32 -11 46 -11 36 0 482 225 496 249 5 11 10 28 10 39 0 32 -207
449 -232 466 -12 9 -34 16 -48 15 -14 0 -124 -50 -245 -110z"/>
<path d="M15935 22880 c-223 -108 -275 -141 -275 -179 0 -10 49 -120 110 -243
132 -272 129 -270 243 -218 184 84 407 201 421 222 9 12 16 32 16 43 0 11 -49
119 -108 240 -87 177 -114 223 -136 233 -15 6 -30 12 -34 12 -4 0 -111 -50
-237 -110z"/>
<path d="M20090 22862 c-63 -31 -329 -162 -590 -290 -261 -128 -483 -240 -492
-249 -10 -9 -18 -30 -18 -48 0 -41 203 -460 229 -475 11 -5 31 -10 44 -10 34
0 1187 566 1215 596 12 14 22 36 22 49 0 13 -49 123 -110 244 -88 178 -115
223 -136 231 -37 14 -38 14 -164 -48z"/>
<path d="M17574 22656 c-204 -100 -232 -116 -243 -144 -13 -31 -10 -40 93
-254 59 -123 116 -231 127 -240 12 -10 31 -18 44 -18 35 0 492 225 504 248 6
12 11 31 11 44 0 33 -214 464 -235 471 -39 16 -82 1 -301 -107z"/>
<path d="M15112 22476 c-222 -111 -262 -138 -262 -177 0 -21 205 -436 227
-461 31 -35 74 -22 305 92 122 60 231 119 241 131 9 12 17 32 17 44 0 32 -205
446 -231 468 -12 9 -32 17 -44 17 -13 0 -127 -51 -253 -114z"/>
<path d="M16785 22269 c-126 -61 -238 -119 -247 -128 -39 -38 -34 -57 81 -288
106 -213 133 -253 173 -253 28 0 495 237 502 255 3 9 6 27 6 40 0 24 -201 440
-223 462 -34 33 -59 25 -292 -88z"/>
<path d="M14295 22076 c-186 -91 -233 -118 -243 -140 -6 -15 -12 -31 -12 -36
0 -4 49 -110 109 -233 108 -223 124 -247 171 -247 34 0 487 225 499 248 6 11
11 30 11 41 0 26 -196 430 -222 458 -14 15 -33 23 -52 22 -18 0 -129 -49 -261
-113z"/>
<path d="M18279 21973 c-220 -111 -235 -120 -243 -151 -8 -30 0 -52 100 -254
60 -121 118 -226 129 -234 11 -8 29 -14 41 -14 11 0 126 51 255 114 236 115
259 131 259 180 0 21 -201 429 -223 454 -36 39 -68 30 -318 -95z"/>
<path d="M20015 21799 c-324 -159 -596 -296 -602 -302 -7 -7 -15 -26 -18 -42
-5 -25 14 -71 104 -252 108 -217 126 -243 170 -243 11 0 289 132 617 292 541
265 598 295 612 325 15 31 14 33 -93 258 -60 124 -114 230 -121 236 -7 5 -27
12 -46 14 -28 4 -130 -43 -623 -286z"/>
<path d="M15965 21867 c-127 -63 -236 -121 -244 -131 -8 -9 -14 -29 -14 -44 0
-29 192 -433 220 -464 9 -10 30 -18 48 -18 35 0 455 198 493 233 13 12 22 32
22 48 0 40 -201 452 -231 472 -13 10 -33 17 -44 17 -11 0 -124 -51 -250 -113z"/>
<path d="M13488 21678 c-211 -107 -244 -127 -251 -151 -8 -25 4 -56 93 -240
102 -209 141 -267 179 -267 30 0 497 236 505 255 14 38 1 76 -103 284 -100
198 -113 220 -142 230 -18 6 -33 11 -35 11 -2 0 -112 -55 -246 -122z"/>
<path d="M17495 21590 c-223 -108 -275 -141 -275 -179 0 -10 49 -120 109 -243
131 -272 129 -270 244 -218 184 84 407 201 421 222 9 12 16 31 16 41 0 11 -49
119 -108 241 -88 179 -113 223 -136 234 -15 6 -30 12 -34 12 -4 0 -111 -50
-237 -110z"/>
<path d="M15158 21472 c-120 -59 -227 -117 -239 -129 -13 -12 -22 -34 -22 -50
0 -33 205 -452 230 -470 9 -7 28 -13 42 -13 38 0 487 223 500 248 6 12 11 32
11 46 0 34 -214 462 -235 470 -38 14 -81 -1 -287 -102z"/>
<path d="M12685 21286 c-126 -62 -235 -119 -242 -127 -32 -39 -26 -59 89 -289
92 -182 118 -228 141 -238 27 -13 40 -8 255 95 248 119 282 140 282 182 0 39
-203 455 -232 475 -12 9 -32 16 -43 15 -11 0 -123 -51 -250 -113z"/>
<path d="M16716 20180 c-1265 -620 -2306 -1136 -2313 -1146 -7 -10 -13 -28
-13 -40 0 -28 195 -432 222 -461 13 -14 33 -23 52 -23 20 0 339 151 921 437
489 240 1021 500 1180 579 1990 974 2523 1238 2538 1255 9 12 17 34 17 50 0
37 -213 464 -235 473 -9 3 -29 6 -43 5 -15 0 -1062 -508 -2326 -1129z"/>
<path d="M16672 21186 c-222 -111 -262 -138 -262 -177 0 -21 205 -436 227
-461 9 -10 30 -18 48 -18 41 0 479 213 500 243 8 12 15 31 15 43 0 34 -216
461 -239 473 -11 6 -29 11 -40 11 -11 0 -123 -51 -249 -114z"/>
<path d="M14343 21071 c-208 -103 -242 -123 -251 -148 -12 -36 1 -69 117 -301
85 -171 115 -212 151 -212 25 0 474 220 493 242 9 11 17 33 17 48 0 29 -198
448 -221 467 -40 33 -59 27 -306 -96z"/>
<path d="M11877 20890 c-119 -59 -224 -114 -233 -121 -44 -36 -40 -51 71 -283
58 -122 115 -229 127 -238 11 -10 33 -18 48 -18 38 0 486 223 499 249 6 11 11
30 11 43 0 28 -193 424 -222 456 -14 14 -33 22 -52 21 -18 0 -123 -46 -249
-109z"/>
<path d="M15854 20786 c-282 -138 -277 -133 -219 -259 94 -201 186 -377 204
-387 11 -5 29 -10 41 -10 34 0 487 225 499 248 6 11 11 29 11 40 0 27 -196
431 -222 460 -14 14 -33 22 -52 21 -18 0 -130 -49 -262 -113z"/>
<path d="M13540 20678 c-124 -60 -233 -117 -242 -125 -34 -30 -21 -74 85 -294
57 -118 111 -220 120 -227 8 -7 28 -14 44 -14 33 -1 481 213 501 239 26 35 12
79 -92 289 -103 209 -128 245 -171 243 -11 0 -121 -50 -245 -111z"/>
<path d="M15048 20388 c-209 -106 -244 -127 -251 -151 -8 -24 6 -58 95 -243
56 -118 111 -224 121 -234 40 -44 55 -40 309 86 132 66 244 127 249 136 19 35
6 73 -100 286 -100 200 -112 221 -142 231 -17 6 -33 11 -35 11 -2 0 -112 -55
-246 -122z"/>
<path d="M12540 20187 c-470 -230 -498 -244 -510 -266 -5 -11 -10 -29 -10 -40
0 -31 217 -459 239 -470 11 -6 29 -11 40 -11 10 0 204 91 429 201 416 204 432
214 432 266 0 8 -49 115 -108 237 -88 179 -113 223 -136 234 -15 6 -30 12 -34
12 -5 0 -158 -74 -342 -163z"/>
<path d="M14245 19996 c-126 -62 -235 -119 -242 -127 -33 -40 -27 -60 85 -285
60 -121 117 -226 126 -233 9 -8 29 -14 44 -14 32 0 457 204 489 235 13 12 23
33 23 48 0 37 -205 455 -232 474 -12 9 -32 16 -43 15 -11 0 -123 -51 -250
-113z"/>
<path d="M13043 19407 c-314 -155 -581 -291 -592 -301 -12 -11 -21 -32 -21
-47 0 -40 202 -452 231 -473 13 -9 32 -16 42 -16 28 0 1180 568 1200 591 9 12
17 32 17 44 0 34 -215 462 -239 474 -11 6 -30 11 -43 10 -13 0 -280 -127 -595
-282z"/>
<path d="M13554 18629 c-269 -133 -534 -263 -589 -289 -165 -78 -164 -68 -31
-340 102 -207 137 -260 174 -260 20 0 1187 572 1214 594 41 36 36 57 -72 279
-56 117 -112 222 -123 235 -13 14 -32 22 -52 22 -21 0 -196 -81 -521 -241z"/>
<path d="M29594 23891 c11 -18 56 -21 84 -7 l27 15 -28 1 c-16 0 -26 -4 -22
-10 3 -5 -1 -10 -9 -10 -9 0 -16 5 -16 10 0 6 -9 10 -21 10 -11 0 -18 -4 -15
-9z"/>
<path d="M29540 23880 c-13 -9 -13 -10 0 -10 8 0 22 5 30 10 13 9 13 10 0 10
-8 0 -22 -5 -30 -10z"/>
<path d="M29715 23881 c3 -5 -5 -11 -17 -13 -17 -2 -19 -5 -8 -9 9 -4 26 2 39
12 l23 19 -21 0 c-12 0 -20 -4 -16 -9z"/>
<path d="M29638 23853 c7 -3 16 -2 19 1 4 3 -2 6 -13 5 -11 0 -14 -3 -6 -6z"/>
<path d="M29305 23820 c-4 -6 -16 -8 -28 -5 -16 4 -14 1 7 -11 22 -12 33 -14
50 -5 19 10 18 11 -9 6 -28 -5 -29 -4 -11 10 11 8 15 15 9 15 -7 0 -15 -5 -18
-10z"/>
<path d="M28990 23720 c-13 -9 -13 -10 0 -10 8 0 22 5 30 10 13 9 13 10 0 10
-8 0 -22 -5 -30 -10z"/>
<path d="M29930 23255 c0 -5 5 -17 10 -25 5 -8 10 -10 10 -5 0 6 -5 17 -10 25
-5 8 -10 11 -10 5z"/>
<path d="M29961 23234 c0 -11 3 -14 6 -6 3 7 2 16 -1 19 -3 4 -6 -2 -5 -13z"/>
<path d="M26015 22990 c-3 -5 3 -10 14 -10 12 0 21 5 21 10 0 6 -6 10 -14 10
-8 0 -18 -4 -21 -10z"/>
<path d="M25758 22923 c7 -3 16 -2 19 1 4 3 -2 6 -13 5 -11 0 -14 -3 -6 -6z"/>
<path d="M25724 22905 c21 -16 32 -13 21 4 -3 6 -14 11 -23 11 -15 -1 -15 -2
2 -15z"/>
<path d="M25540 22869 c0 -6 -7 -9 -15 -5 -8 3 -29 -2 -47 -10 -30 -13 -30
-14 -6 -9 21 4 26 2 22 -9 -4 -9 -17 -14 -34 -13 -15 1 -26 5 -24 9 2 4 0 9
-5 12 -5 3 -11 -1 -15 -9 -3 -8 -2 -15 2 -16 4 0 16 -2 27 -5 31 -6 67 5 59
18 -5 8 -2 9 10 5 10 -4 24 1 36 13 24 24 25 30 5 30 -8 0 -15 -5 -15 -11z"/>
<path d="M25557 22843 c-14 -13 -6 -33 13 -33 13 0 20 7 20 20 0 19 -20 27
-33 13z"/>
<path d="M25173 22635 c0 -8 4 -12 9 -9 5 3 6 10 3 15 -9 13 -12 11 -12 -6z"/>
<path d="M25181 22594 c0 -11 3 -14 6 -6 3 7 2 16 -1 19 -3 4 -6 -2 -5 -13z"/>
<path d="M28970 22527 c0 -2 7 -18 15 -33 13 -25 15 -26 15 -8 0 12 -7 27 -15
34 -8 7 -15 10 -15 7z"/>
<path d="M28991 22444 c0 -11 3 -14 6 -6 3 7 2 16 -1 19 -3 4 -6 -2 -5 -13z"/>
<path d="M30097 22619 c3 -10 9 -16 14 -13 13 8 11 21 -5 27 -10 4 -12 0 -9
-14z"/>
<path d="M25250 22252 c6 -13 14 -21 18 -18 3 4 -2 14 -12 24 -18 16 -18 16
-6 -6z"/>
<path d="M25312 22058 c-8 -8 -8 -17 -1 -30 5 -10 7 -23 4 -28 -3 -5 -1 -11 4
-14 5 -3 11 5 13 19 3 14 1 25 -4 25 -5 0 -6 9 -3 20 7 23 4 25 -13 8z"/>
<path d="M25330 21945 c0 -5 5 -17 10 -25 5 -8 10 -10 10 -5 0 6 -5 17 -10 25
-5 8 -10 11 -10 5z"/>
<path d="M30075 21820 c11 -5 29 -9 40 -9 l20 0 -20 9 c-11 5 -29 9 -40 9
l-20 0 20 -9z"/>
<path d="M26511 21874 c0 -11 3 -14 6 -6 3 7 2 16 -1 19 -3 4 -6 -2 -5 -13z"/>
<path d="M29293 21663 c9 -2 25 -2 35 0 9 3 1 5 -18 5 -19 0 -27 -2 -17 -5z"/>
<path d="M29363 21654 c0 -11 9 -13 36 -8 58 11 63 19 12 20 -35 2 -48 -2 -48
-12z"/>
<path d="M29460 21650 c-13 -8 -12 -10 3 -10 9 0 17 5 17 10 0 12 -1 12 -20 0z"/>
<path d="M25401 21734 c0 -11 3 -14 6 -6 3 7 2 16 -1 19 -3 4 -6 -2 -5 -13z"/>
<path d="M25421 21734 c0 -11 3 -14 6 -6 3 7 2 16 -1 19 -3 4 -6 -2 -5 -13z"/>
<path d="M25410 21701 c0 -5 5 -13 10 -16 6 -3 10 -2 10 4 0 5 -4 13 -10 16
-5 3 -10 2 -10 -4z"/>
<path d="M29764 21736 c16 -9 31 -14 34 -11 8 8 0 13 -33 20 l-30 7 29 -16z"/>
<path d="M26661 21168 c-1 -22 11 -29 29 -18 12 7 12 12 2 22 -9 9 -12 8 -13
-7 0 -19 -1 -19 -9 0 -7 16 -9 17 -9 3z"/>
<path d="M25540 21095 c0 -5 5 -17 10 -25 5 -8 10 -10 10 -5 0 6 -5 17 -10 25
-5 8 -10 11 -10 5z"/>
<path d="M26670 20999 c0 -5 5 -7 10 -4 6 3 10 8 10 11 0 2 -4 4 -10 4 -5 0
-10 -5 -10 -11z"/>
<path d="M26540 20939 c-22 -8 -21 -8 8 -4 23 3 31 1 26 -7 -4 -7 -3 -8 5 -4
6 4 9 12 6 17 -7 10 -11 10 -45 -2z"/>
<path d="M25875 20750 c-3 -5 -2 -10 4 -10 5 0 13 5 16 10 3 6 2 10 -4 10 -5
0 -13 -4 -16 -10z"/>
<path d="M23243 14336 c-58 -19 -104 -49 -149 -99 -31 -33 -270 -527 -1153
-2386 -613 -1290 -1120 -2365 -1128 -2390 -20 -63 -11 -156 22 -225 52 -111 3
-85 1446 -770 l1324 -630 75 -4 c105 -6 176 22 249 97 53 54 76 101 581 1166
290 611 785 1652 1100 2315 315 663 584 1230 596 1260 17 39 24 75 24 125 0
98 -23 157 -90 227 l-55 58 -1315 624 c-723 343 -1333 629 -1355 635 -52 14
-120 13 -172 -3z m288 -538 c84 -28 129 -90 129 -178 0 -201 -268 -259 -351
-75 -25 55 -24 102 6 161 41 82 132 121 216 92z m140 -613 c206 -98 453 -216
549 -262 96 -46 301 -143 455 -216 429 -201 415 -192 422 -289 4 -51 -2 -65
-137 -348 -78 -162 -198 -414 -267 -560 -69 -146 -134 -277 -144 -291 -10 -15
-34 -34 -53 -43 -68 -32 -81 -28 -431 139 -161 77 -242 116 -520 248 -614 291
-902 431 -919 445 -29 27 -46 68 -46 114 0 35 32 111 173 408 95 201 213 451
262 555 49 105 99 204 111 221 31 43 80 66 130 61 27 -3 172 -67 415 -182z
m-1180 -1688 c89 -60 114 -173 56 -257 -66 -97 -187 -114 -274 -37 -92 81 -83
224 19 290 56 36 148 39 199 4z m269 -676 c300 -143 689 -327 865 -411 176
-83 331 -161 344 -173 28 -26 51 -76 51 -113 0 -29 -39 -117 -181 -411 -49
-102 -89 -187 -89 -188 0 -2 -34 -74 -76 -161 -42 -88 -104 -218 -139 -289
-66 -140 -99 -179 -160 -191 -59 -11 42 -56 -1215 541 -496 236 -579 276 -612
298 -34 23 -63 96 -54 137 11 55 528 1144 559 1179 33 36 76 52 122 46 23 -3
277 -118 585 -264z"/>
<path d="M24493 14172 c-48 -37 -52 -111 -10 -150 39 -36 675 -332 714 -332
79 0 124 105 71 164 -13 14 -165 92 -352 180 -345 163 -378 174 -423 138z"/>
<path d="M22031 8355 c-201 -56 -266 -298 -119 -445 50 -50 112 -74 188 -74
145 1 259 113 260 255 0 112 -51 199 -143 243 -69 32 -120 38 -186 21z"/>
</g>
</svg>
