<?xml version="1.0" standalone="no"?>
<!DOCTYPE svg PUBLIC "-//W3C//DTD SVG 20010904//EN"
 "http://www.w3.org/TR/2001/REC-SVG-20010904/DTD/svg10.dtd">
<svg version="1.0" xmlns="http://www.w3.org/2000/svg"
 width="802.000000pt" height="844.000000pt" viewBox="0 0 802.000000 844.000000"
 preserveAspectRatio="xMidYMid meet">

<g transform="translate(0.000000,844.000000) scale(0.100000,-0.100000)"
fill="#000000" stroke="none">
<path d="M3307 8102 c-9 -9 -41 -89 -71 -176 -30 -88 -59 -163 -65 -169 -11
-11 -70 102 -116 221 -16 39 -31 72 -35 72 -15 0 -31 -29 -37 -63 -5 -31 5
-56 70 -180 l75 -143 -37 -90 c-49 -115 -87 -191 -117 -231 -26 -35 -23 -63 8
-63 21 0 41 38 115 230 24 63 46 116 48 118 2 2 25 -36 51 -85 84 -155 111
-193 138 -193 24 0 56 32 56 56 0 6 -17 29 -39 52 -56 59 -164 241 -158 266 3
12 35 93 71 181 36 88 68 172 72 188 7 31 -5 35 -29 9z"/>
<path d="M3816 8078 c-65 -48 -168 -168 -241 -280 -39 -60 -58 -80 -87 -92
-43 -16 -52 -41 -13 -34 14 3 25 4 25 3 0 -1 -16 -38 -35 -82 -61 -141 -74
-223 -35 -223 26 0 51 34 57 77 15 119 61 239 98 253 36 14 193 35 201 27 3
-3 -6 -77 -21 -163 -29 -169 -26 -190 19 -160 34 22 42 40 50 116 16 161 29
218 48 223 22 6 24 27 3 27 -11 0 -14 7 -10 23 2 12 18 82 35 155 39 171 39
172 -4 172 -24 0 -50 -12 -90 -42z m34 -58 c0 -25 -16 -109 -45 -237 -4 -19
-12 -23 -43 -24 -20 0 -70 -6 -109 -13 -40 -7 -73 -11 -73 -9 0 20 123 187
189 256 63 65 81 71 81 27z"/>
<path d="M4229 8100 c-19 -11 -275 -687 -265 -698 4 -3 19 0 33 8 22 13 34 41
77 175 59 181 137 385 149 385 4 0 7 -19 7 -42 0 -82 40 -513 51 -545 7 -21
17 -33 28 -33 38 0 68 54 131 240 34 102 90 249 122 328 33 79 58 146 54 149
-3 3 -16 3 -30 -1 -28 -7 -26 -4 -138 -321 -39 -110 -76 -211 -83 -224 -12
-24 -13 -23 -19 25 -3 27 -15 162 -27 299 -13 152 -26 253 -33 257 -15 10 -38
9 -57 -2z"/>
<path d="M2647 7925 c-118 -49 -177 -84 -177 -108 0 -5 9 -7 20 -4 23 6 27 -9
34 -157 4 -91 3 -100 -16 -116 -23 -18 -16 -45 8 -36 8 3 14 4 14 3 0 -1 9
-89 19 -195 11 -106 21 -195 23 -197 6 -6 245 92 272 112 24 17 40 42 33 50
-2 2 -49 -15 -104 -37 -114 -45 -120 -47 -127 -22 -9 30 -24 143 -31 233 l-7
87 65 31 c110 53 121 90 13 47 -35 -14 -69 -26 -74 -26 -10 0 -27 245 -17 260
3 5 31 18 63 30 71 26 132 66 132 85 0 20 5 21 -143 -40z"/>
<path d="M4861 7971 c-8 -5 -11 -16 -8 -26 5 -11 -46 -98 -156 -268 -235 -362
-223 -338 -175 -350 13 -3 41 -12 63 -21 86 -33 238 -15 345 39 134 68 252
217 286 362 27 117 -28 193 -174 242 -72 25 -162 36 -181 22z m196 -68 c68
-32 92 -105 68 -208 -49 -212 -219 -376 -390 -377 -53 0 -135 27 -135 45 0 6
12 31 27 56 53 92 296 467 317 489 23 26 51 25 113 -5z"/>
<path d="M2111 7704 c-13 -17 -21 -41 -21 -65 0 -36 121 -644 135 -681 4 -10
11 -18 15 -18 16 0 227 123 253 148 24 22 36 52 22 52 -2 0 -49 -25 -102 -55
-54 -30 -103 -55 -109 -55 -19 0 -113 403 -144 618 -7 45 -16 82 -20 82 -5 0
-18 -12 -29 -26z"/>
<path d="M5500 7711 c0 -6 5 -11 11 -11 16 0 -8 -29 -133 -162 -260 -278 -323
-350 -323 -366 0 -14 9 -17 44 -16 48 1 51 3 134 110 21 27 57 69 80 94 23 25
91 99 151 165 60 66 115 126 121 134 19 19 78 -2 110 -40 29 -35 32 -73 10
-126 -21 -50 -42 -72 -90 -94 -51 -23 -86 -23 -155 1 -30 10 -59 15 -63 11 -4
-4 -13 -76 -19 -158 -14 -173 -4 -244 37 -283 14 -13 28 -21 31 -17 3 3 6 75
5 159 0 84 3 173 7 198 l7 45 63 -3 c127 -7 235 53 263 147 23 77 -8 120 -129
178 -75 37 -162 55 -162 34z"/>
<path d="M1752 7502 c-50 -54 -81 -208 -82 -408 0 -111 -2 -123 -24 -153 -29
-39 -25 -72 5 -45 17 15 18 15 23 -7 3 -13 12 -60 21 -104 22 -107 48 -165 73
-165 39 0 41 43 6 118 -14 30 -35 93 -47 140 l-21 85 83 79 c45 43 86 78 90
78 5 0 37 -66 72 -146 34 -80 67 -148 71 -150 15 -10 37 17 44 52 5 27 -1 44
-29 91 -55 92 -101 203 -88 216 6 6 11 17 11 25 0 12 -3 12 -15 2 -17 -14 -19
-11 -91 180 -56 145 -63 153 -102 112z m74 -226 l48 -119 -25 -19 c-13 -11
-46 -41 -74 -67 -83 -79 -79 -84 -72 90 6 149 17 220 40 247 16 20 29 0 83
-132z"/>
<path d="M6165 7253 c-74 -7 -199 -35 -290 -64 -73 -24 -95 -28 -119 -19 -16
5 -35 10 -42 10 -18 0 -18 -20 1 -34 12 -9 -2 -20 -72 -56 -148 -77 -207 -150
-122 -150 25 0 44 11 83 48 55 52 166 122 194 122 22 0 184 -92 189 -107 2 -6
-48 -57 -111 -113 -144 -127 -150 -140 -72 -140 35 0 45 6 90 54 101 107 161
154 190 149 15 -3 26 -1 26 6 0 6 -4 11 -10 11 -5 0 -10 4 -10 8 0 7 96 87
218 181 23 18 42 41 42 51 0 32 -87 52 -185 43z m74 -39 c7 -7 -24 -37 -118
-116 -94 -78 -95 -78 -120 -61 -14 9 -57 35 -95 56 -67 39 -68 40 -45 52 32
17 168 55 254 71 62 11 112 11 124 -2z"/>
<path d="M6240 6863 l-21 -28 23 -18 c51 -41 176 -168 268 -272 488 -555 774
-1155 882 -1850 29 -188 36 -625 14 -825 -32 -279 -100 -563 -201 -835 -34
-92 -202 -454 -216 -465 -3 -3 -14 -21 -24 -40 -10 -19 -26 -46 -35 -60 -9
-14 -43 -65 -75 -115 -241 -372 -549 -699 -905 -962 -266 -196 -485 -319 -775
-434 -60 -24 -111 -44 -113 -45 -2 -1 4 -18 12 -38 l15 -36 63 24 c343 129
686 332 1008 595 112 91 360 333 452 441 251 293 470 642 613 975 50 115 161
443 170 498 2 18 12 60 20 94 8 35 17 75 20 90 2 16 9 49 14 75 34 159 45 300
45 588 0 288 -11 436 -44 595 -6 28 -13 64 -16 80 -3 17 -12 57 -20 90 -8 33
-16 69 -18 80 -5 33 -26 104 -63 220 -144 449 -408 904 -753 1299 -119 136
-135 150 -149 141 -6 -3 -8 0 -5 8 5 14 -136 157 -155 157 -5 0 -19 -12 -31
-27z"/>
<path d="M1451 6786 c-24 -24 -40 -49 -37 -55 4 -6 1 -9 -7 -5 -40 15 -385
-416 -551 -687 -57 -95 -65 -113 -54 -127 12 -15 11 -15 -4 -4 -15 12 -25 -4
-102 -160 -92 -189 -156 -350 -210 -528 -37 -121 -72 -262 -81 -320 -2 -19 -9
-57 -15 -85 -43 -203 -63 -636 -41 -886 13 -146 51 -382 76 -469 9 -30 16 -62
17 -70 1 -30 72 -258 119 -383 95 -250 216 -482 385 -734 153 -228 276 -376
483 -583 371 -369 796 -650 1244 -820 l49 -19 14 36 c9 19 14 36 12 37 -2 2
-41 18 -88 36 -136 53 -396 183 -513 257 -509 322 -909 723 -1211 1213 -33 52
-66 106 -75 120 -33 50 -171 338 -207 430 -42 110 -113 316 -118 345 -2 11
-11 49 -21 85 -77 290 -116 695 -96 993 30 450 122 821 299 1212 172 378 438
762 740 1067 l96 98 -24 25 c-13 14 -26 25 -30 25 -3 0 -25 -20 -49 -44z"/>
<path d="M4695 5743 c-47 -11 -161 -115 -279 -253 -157 -183 -256 -318 -495
-677 -132 -199 -249 -367 -259 -372 -12 -6 -41 -5 -87 5 -170 36 -355 64 -420
64 -189 -1 -335 -88 -335 -202 0 -59 67 -128 124 -128 44 0 43 27 -3 69 -65
60 -55 101 38 144 40 19 63 21 176 20 143 -1 244 -18 361 -61 l74 -28 -29 -59
c-15 -33 -189 -337 -385 -675 -442 -761 -607 -1001 -666 -970 -26 14 -33 62
-28 183 6 122 21 160 73 177 71 23 26 100 -50 86 -44 -9 -75 -49 -106 -141
-33 -97 -33 -263 0 -347 37 -94 98 -120 182 -78 117 60 233 223 563 795 330
571 534 912 567 946 40 43 26 43 184 -1 141 -40 237 -58 361 -69 70 -6 112
-14 121 -24 13 -13 12 -37 -7 -203 -31 -260 -39 -673 -16 -830 22 -148 52
-267 86 -334 58 -115 176 -213 272 -226 59 -8 84 7 99 57 10 33 10 45 -4 73
-17 37 -55 53 -87 36 -57 -31 -113 7 -165 113 -73 150 -110 411 -94 677 28
491 89 866 252 1565 86 368 101 447 102 531 0 70 -17 109 -57 130 -28 15 -30
15 -63 7z m-18 -201 c13 -8 12 -13 -106 -537 -120 -536 -151 -666 -164 -686
-16 -26 -63 -33 -172 -25 -106 7 -403 77 -416 97 -5 8 -6 22 -3 32 6 19 467
711 533 800 55 74 290 327 304 327 7 0 17 -4 24 -8z"/>
<path d="M4680 1213 c-98 -15 -205 -55 -214 -80 -4 -9 -1 -22 5 -30 9 -10 9
-73 0 -261 -14 -298 -14 -442 -2 -442 31 0 151 35 190 55 106 53 210 193 245
331 18 70 21 207 5 274 -13 57 -51 115 -86 133 -31 16 -105 27 -143 20z m95
-86 c56 -59 79 -138 78 -272 0 -74 -6 -115 -21 -157 -51 -143 -152 -228 -268
-228 l-27 0 8 263 c11 376 14 409 45 424 14 7 52 13 84 13 57 0 61 -2 101 -43z"/>
<path d="M3080 1174 c0 -4 7 -12 16 -18 14 -11 8 -25 -50 -117 -53 -83 -73
-106 -96 -112 -27 -7 -43 -37 -20 -37 20 0 8 -25 -80 -174 -49 -84 -90 -160
-90 -169 0 -10 8 -17 20 -17 40 0 77 29 100 77 12 26 49 95 82 151 60 102 62
104 92 97 71 -15 96 -17 120 -11 36 9 32 23 -6 31 -65 13 -108 28 -108 38 0
12 131 217 139 217 3 0 33 -7 66 -15 69 -16 151 -19 160 -5 6 9 -2 12 -154 49
-81 20 -191 28 -191 15z"/>
<path d="M3502 1118 c-14 -7 -45 -56 -86 -137 -73 -145 -246 -524 -246 -540 0
-6 10 -11 23 -11 40 0 74 41 111 136 42 107 189 416 235 492 40 68 27 90 -37
60z"/>
<path d="M4196 1109 c-14 -11 -33 -33 -40 -47 -17 -33 -151 -690 -143 -698 10
-10 273 23 303 38 42 20 45 43 5 35 -17 -4 -75 -10 -128 -13 l-95 -7 6 29 c3
16 13 74 21 129 19 122 80 414 100 481 24 80 19 90 -29 53z"/>
<path d="M3748 1091 c-58 -8 -84 -29 -50 -38 26 -6 27 -1 -27 -147 -27 -74
-41 -100 -58 -107 -25 -9 -32 -39 -9 -39 10 0 -2 -50 -45 -182 -33 -100 -59
-188 -59 -194 0 -8 42 -12 136 -13 127 -2 204 9 204 28 0 5 -54 12 -120 16
-116 7 -120 7 -115 28 3 12 9 42 15 67 5 25 24 90 43 145 l34 100 76 5 c42 3
82 11 89 18 6 6 8 12 3 12 -38 2 -149 11 -150 13 -1 1 18 57 42 124 l45 121
104 4 c82 2 107 7 121 21 16 16 13 17 -72 17 -50 0 -106 2 -125 4 -19 2 -56 1
-82 -3z"/>
</g>
</svg>
